<?xml version="1.0" encoding="utf-8"?>
<!-- Generator: Adobe Illustrator 16.0.0, SVG Export Plug-In . SVG Version: 6.00 Build 0)  -->
<!DOCTYPE svg PUBLIC "-//W3C//DTD SVG 1.1//EN" "http://www.w3.org/Graphics/SVG/1.1/DTD/svg11.dtd">
<svg version="1.1" xmlns="http://www.w3.org/2000/svg" xmlns:xlink="http://www.w3.org/1999/xlink" x="0px" y="0px" width="537px"
	 height="1005px" viewBox="0 0 537 1005" enable-background="new 0 0 537 1005" xml:space="preserve">
<g id="Mar">
	<rect x="0.5" y="0.625" fill="#A2C6EA" stroke="#000000" stroke-miterlimit="10" width="536.5" height="1004.375"/>
</g>
<g id="Coordenadas">
	<line fill="#F6F0A0" stroke="#000000" stroke-miterlimit="10" x1="0" y1="885.925" x2="537" y2="885.925"/>
	<line fill="#F6F0A0" stroke="#000000" stroke-miterlimit="10" x1="0" y1="691.528" x2="537" y2="689.028"/>
	<line fill="#F6F0A0" stroke="#000000" stroke-miterlimit="10" x1="0" y1="489.639" x2="537" y2="496.5"/>
	<line fill="#F6F0A0" stroke="#000000" stroke-miterlimit="10" x1="537" y1="304.008" x2="0" y2="298.542"/>
	<line fill="#F6F0A0" stroke="#000000" stroke-miterlimit="10" x1="537" y1="109.343" x2="0" y2="109.343"/>
	<line fill="#F6F0A0" stroke="#000000" stroke-miterlimit="10" x1="461.667" y1="1005" x2="440.334" y2="0.625"/>
	<line fill="#F6F0A0" stroke="#000000" stroke-miterlimit="10" x1="128.25" y1="1005" x2="143.667" y2="0.625"/>
	<line fill="#F6F0A0" stroke="#000000" stroke-miterlimit="10" x1="296.334" y1="1005" x2="303.375" y2="0.625"/>
	<text transform="matrix(1 0 0 1 134.9585 998.0137)" font-family="'MyriadPro-Bold'" font-size="14">126° E</text>
	<text transform="matrix(1 0 0 1 299.8535 998.0137)" font-family="'MyriadPro-Bold'" font-size="14">128° E</text>
	<text transform="matrix(1 0 0 1 496.334 878.0137)" font-family="'MyriadPro-Bold'" font-size="14">34° N</text>
	<text transform="matrix(1 0 0 1 500.333 681.2207)" font-family="'MyriadPro-Bold'" font-size="14">36° N</text>
	<text transform="matrix(1 0 0 1 500.334 491.7085)" font-family="'MyriadPro-Bold'" font-size="14">38° N</text>
	<text transform="matrix(1 0 0 1 496.333 297.875)" font-family="'MyriadPro-Bold'" font-size="14">40° N</text>
	<text transform="matrix(1 0 0 1 497 103.3472)" font-family="'MyriadPro-Bold'" font-size="14">42° N</text>
	<line x1="0" y1="551.884" x2="19.875" y2="0.625"/>
</g>
<g id="China">
	<path fill="#F2EE9C" stroke="#000000" stroke-miterlimit="10" d="M0,312c0,0,2.75-1.75,4.25-1.75S7,311,9,310.25s-1.25-3,0-5
		s-0.25-3.416,2.75-4.583s6.5-3.167,6.5-3.167s3.5-1,3.75-3.25s1.75-3.25,1.25-4.75s0-3.5,1.25-4.5s3.5-3.25,4.5-3.5
		s-0.25-1.5,2.25-2.75s2.125-2.125,2.5-2.125s1-1.125,1.625-1.125s0.875-1.75,2.625-2.25s1.875-1.75,2.625-1.875
		s1.75-1.125,2.375-1.625s1.375-0.75,2.375-1.5s1.5-0.875,2.375-0.875s1.5-0.875,2.25-1.125s2.5-0.5,2.5-1.375s1.125-1,1.125-2.125
		s2.125-3,2.125-3.875s0.625-1.375,1.75-1.375s2.625,0,2.625-1s1.5-2.028,2-2.514s1.125-1.236,2-1.361s2.625-1.25,3-1.125
		s3.5-0.02,4.25-0.01S73,250,73,248.625s0.875-2.125,0-2.625s-0.473-1.625,0.389-2.125s1.361-1.75,3.111-1.875s1.5-1.25,3.25-1.25
		s2.375-1.125,3.875-1.25s2.875-1.25,4.375-2.375s2.375-1.125,3.625-1.5s3-0.625,3.75,0s2.125,0.5,3.25,0.625s1.625-0.5,3-0.5
		s2.25-0.5,2.5-1.75s1.375-2.125,1.375-3s1.708-0.75,2.167-1.5s0.333-0.75,2.208-1s4.5-0.5,4.75-1s1.125-1.25,1.625-1.875
		s1.375-1.25,2.125-1.25s0.75-0.375,1.75-0.875s2.375,0,1.875-1.5s-1.875-0.25-1.75-2s1.337-2.25,1.856-2.25s2.519-0.625,2.519-1.5
		s0.625-1.625,1.25-1.875s0.875-0.25,2.25-1.125s2.125-0.5,2.875,0.625s0.875,0.625,2.25,0.875s2.75-0.375,3.625-0.875
		s2-1.875,3.25-1.875s4,1.25,4.25,0s1.75-2.375,2.875-2.75s0.25-1.125,1.75-1.375s1.75-0.75,2-1.875s1.176-1.5,1.525-2.625
		s0.6-2.25,0.975-3.25s0.5-1.75,1.5-1.75s1.375-0.75,2-1.75s1.875-1.875,1.875-2.5s1.625-0.75,1.625-1.875s0.625-2.25,1.5-2.875
		s1-1.5,2.125-2s1.875-1.75,2.125-2.125s0-1.5,1.25-1.5s2.5,0,3-1.25s1.875-1.375,1.875-2.5s1.25-2.5,1.25-4s0-2.5,0.875-3.5
		s1.5-2.125,2.5-2.125s2.5-1,3.25-1.125s2.25-1.5,2.75-2.25s2-1.5,1.875-2.25s-1-2.625-0.875-3.875s0.515-1.5,0.882-2.625
		s0.993-2.875,1.993-3.375s1.375-2.5,1.75-3.75s0.25-2.875,0.625-4.125s0.875-2.625,0.875-3.625s1-3.375,2.5-3.5
		s3.615,0.125,4.37-0.625s1.255-1.5,1.755-2.75s0.25-1.875-0.75-3.125s-0.5-3.125,0.375-2.75s2.125,0.875,3.5,1.375
		s3.625-0.75,4.375-0.625s3.125-0.098,3.875-0.799s1.625-1.326,1.75-2.326s0.25-2.5,1.875-1.75s4.125,0.625,5.625,2.125
		s1.75,1.5,2.5,2.125s1.625,2.625,2.25,3.25s0.5,2.125,0.625,3s-1.375,1.125,0,2.25s3.375,2.5,3.875,3.375s0.75,2,1.25,2.875
		s1.375,2,0,2.75s-2.75,1-1.875,2.375s2.25,2.375,3.5,2.375s2.875,1.375,3.75,1.375s3.127,0.25,4.188,1.125s3.437,2,4.312,1.875
		s2.573-0.375,3.912-0.25s1.713-0.75,3.463-0.75s2.625-1.375,4.5-1.125s5.293,0.75,4.709,1.5s-0.408,3.375,0.066,4.5
		s1.475,1.5,2.225,1.5s5.125,1.625,5.875,0.875s3.25-0.875,5-0.75s3.25,1.25,4.625,1s1.875-1.125,3.125-1.125s2.875-1.25,3.875-1.25
		s0.625-1.75,2.25-1.5s3.625,0,4.75,1s2,1.25,2.625,2.125S297,166,298,166s2.875-0.5,3.75-1.875s2.25-1.5,3.25-3.375
		s2.5-2.875,3-4.25s0.5-3,1.625-3.75s1.875-1.125,2.5-1.625s1.25-1.5,2-2.625s-0.375-2.75,0-4.25s1.5-1.5-0.75-3.375
		s-2.625-3.375-5.25-3.375s-1.469-1.25-3.797-1.75s-3.078-2.375-3.578-3.75s-2.125-1.5-1.75-3.75s0.125-3.25,0-4.75
		s-0.375-2.5-0.75-4.125s-1.25-1.75-1.625-3.5s-0.875-1.75-0.375-3.25s0.5-3.875,1.625-4.75s2-2.25,4.5-2.625
		s5.25-2.125,6.875-2.375s6.875,0.375,8.125,0s2.865-0.997,5.62-0.061s2.13-0.189,3.88,0.936s3.625,1.625,4.75,1.625
		s3.5-0.5,4.25-1.5s0.75-1,2.375-1s2.531-0.625,4.078,0.375s4.297-0.125,5.672,0s3.5-2.104,4.375-0.927s1.5,1.927,2.375,2.427
		s2.625,2.625,3.125,0.875S359,101,359.5,98.875s0.5-3.25,2.375-3.75s3.375-1.75,4.75-2.25s2.375-1.75,3.625-1.75
		s1.25-0.875,2.75-1.25s2.75-1.75,2.75-1.75s-0.375-1,0.875-2.25s2.627-0.375,2.376-2.625S377.25,79,378,78s2.125-1.125,2.25-2.625
		s-1.25-4,0-5.125s1.625-1.75,3-3.125s1.75-2.125,3.875-3.5s3.375-2.75,4.125-2.875s2.5,0.125,3.625,1.25s1.75,3.375,2.5,4.5
		s0.375,2.125,2.5,2.125s3.375,1.375,4,0s1.375-1.875,2.125-3s1.75-3.875,3.625-3.625s5.125,1.125,6-2.25s1.25-3,1.625-6
		s0.5-8.5,0.5-10.875s0.375-3.125,0-5.875s-0.416-3.875,0.167-6.125S417.75,27.75,418.75,26s1-2.83,2.125-4.665s1.375-1.71,2-3.585
		s0.625-3.125,1.5-4.5S424.75,10.125,426,8.5s2.5-2.25,4.75-1.625s3.25,1.75,4.875,1.75s0.25,2,2.375,1.5s1.375-2.25,3-2.125
		s3.625,0.25,3.375,2.125s-0.75,3.625-0.625,4.25s-1.582,2,0.646,2s0.479,0.5,3.104,0.5s3.125-0.375,3.25,2.25s1.625,3.75,1,5.25
		s-0.875,2.875-0.875,4.5s0.428,3.125,1.026,4.5s3.349,3.25,3.974,4s2,0.875,3.375,3.375s2.75,2.75,3.25,4.125s3.375,2.5,3.5,3.875
		s-0.625,3.25,0.625,3.125s2-0.75,2.5-1.875s-1-3.25,0-4.375S470.5,45,471.75,45.5s2,1.125,2,2.625s0.25,2.875,0,4.25
		s0.625,2.125,0.625,3.875s0.5,2.875,1,4.375s1.25,2,2.375,2.75s1.75,1.75,2.875,2.375s2.25,1.75,2.125,3s-0.105,2.875,0.01,5.25
		c0,0,0.74-0.5,1.49-0.5s1.75-0.875,2-2.5s1.625-3,1.125-5s-1.283-4,0.108-5.125S488.875,58.75,490,58s1.25-1.25,2-2.25
		s1.25-2.375,1.625-3.5s2.875-1.125,0.625-2s-4.375,0.625-4.5-2.125s-0.375-2.625-1.75-2.5s-3.75,0.75-4.375-0.625
		s-0.125-2.75,0.5-4.875S487,37.625,488,37.5s4-1,5.125,0.25s2.25,2.375,3.375,3.25s2.125,2.125,3,1.375s2.375-2,3.625-2
		S510.25,39,511.75,41.25s1,3.125,2.875,4.375s3.125,3,3.875,0.875s0.25-4.625,0.75-6.5s1.25-7.125,1.875-8.625s2.875-4.875,3.875-5
		s4.125,0.875,4.625-1.625s0.375-5.875,1.75-6.625s4.25,1,4.5-0.5s-1-3-3.125-3.625S529,11.125,531,11.25s5.125,1.625,6-0.25
		c0-2.625,0-10.375,0-10.375H0.5L0,312z"/>
</g>
<g id="Corea_del_Sur_a">
	<path fill="#B1D5B1" stroke="#000000" stroke-miterlimit="10" d="M518.125,535.125c1.625-1,1.875-1.625,2.875-1.375
		s1.75,0.25,1.75,1.375s0,3-0.875,3.25s-1,2.625-2.375,3.125s-2,1.125-2.625,0.75s-1.875-1.125-2-2s-0.375-1.94-0.75-2.22
		s-1-0.78-1-1.53s0.375-1.875,1.125-1.875s1.375-1.375,2.25,0.125S518.125,535.125,518.125,535.125z"/>
	<path fill="#B1D5B1" stroke="#000000" stroke-miterlimit="10" d="M342.078,797.625c0.797-0.375,1.922-0.75,1.672-1.875
		s-0.262-1.75-0.818-2.5s-1.9-1.75-0.854-1.75s2.422,0.309,2.672-0.846s0.625-2.154,0.875-2.904s0.5-1.5,1-1.75
		s0.625-2.027,1.375-2.014s1.375-1.676,2.125-0.831s1.125,3.095,1.125,4.345s-0.125,5.5,0,6.375s0.375,2.625,0,4.5
		s-0.604,2.625,0.198,2.75s1.177,0.25,0.927,1.75s1.027,2.75,0.076,3.5S351,808.625,350.5,808s-0.875-2.5-1.75-2.875
		s-2-1.625-2.625-0.5s-0.875,2.297-0.625,3.523s0.625,1.852,0.25,3.227s-1,2.625-1,3.125s-0.217,0.625-1.796,0.5
		s-2.579,0.625-2.579-0.875s0.875-4,0-4.25s-2.5-0.875-2.5,0s0.375-0.75,0-1.875s0.752-1.625,1.376-2s1.749-1.125,1.749-1.125
		s0.375-1.875-0.25-2.375s-0.123-2-1.499-1.25s-1.874,0.5-2.5,0.75s-2.5,1.125-2.5,1.125S333.5,803.625,333,803
		s-1.5-1.375-1.5-2.375s-0.25-2.5,1-2.5s2.75-1.625,2.75-2.5s0.877-2.375,1.501-2.25s1.124,0.875,1.124,1.625s-0.375,1.5,0.5,2
		S342.078,797.625,342.078,797.625z"/>
	<path fill="#B1D5B1" stroke="#000000" stroke-miterlimit="10" d="M334.251,807.5c0.624,0.375,1.124,0.625,1.124,1.625
		s-1.248,2.5-1.124,2.875s1.001,2.5,0,1.75s-1.126-1.875-1.751-2s-0.041-0.625-1.021-1.5s-1.354-0.875-0.729-1.75
		s2.068-1.125,2.159-1S334.251,807.5,334.251,807.5z"/>
	<path fill="#B1D5B1" stroke="#000000" stroke-miterlimit="10" d="M327.125,804.75c0.75,0.25,1.25,1,1.25,1.5s-0.25,1.5,0,2
		s1.125,1.25,0,1.25s-1.5,0.875-2.125,0s-0.25-1.561-1.25-2.03s-2.135-1.095-2.005-2.22s0.88-1.5,1.505-1.125
		S327.125,804.75,327.125,804.75z"/>
	<path fill="#B1D5B1" stroke="#000000" stroke-miterlimit="10" d="M174.25,933.375c1.625-0.625,2.625-0.875,3.75-1.625
		s3-1,3.625-1.75s1.5-0.375,2.5-1s4.75,0.25,5.125,0s3.375-1.209,4.625-0.229s1.615,1.229,3.12,1.229s1.63,1.09,2.88,0.857
		S202.5,931,203,932.5s1.375,1.625,1.375,3.625s1,2.625,0.625,3.875s-0.75,1.625-2,3.625s-2.375,4.125-3.375,4.25
		s-1.125,2.25-1.625,2.875s-1.625,1.25-3.875,2s-3.5,2.5-5.875,2.75s-3.625,0.5-4.875,1.375s-2.125,1.875-3.5,1.625
		s-5.25,0.375-5.625,0.625s-1.375,1.25-2.875,1.25S168.25,959,167,959s-2.625-0.25-4.375-0.25s-2.375-0.75-3.875,0
		s-1.75-0.25-3.625,1s-4.125,0.375-4,2.625s0.74,4.875-0.005,3.5s-0.87-1.375-2.37-3.25s-2.5-2.125-3.375-3.5s-2.375-1.75-2.5-3.375
		s-1.375-2.125-1.25-3.875S141.75,949,143,948s4.125-3.375,5.25-3.875s2.875-2.375,3.75-2.375s1.375-2.125,2.125-3
		s3.25-2.25,4.25-2.875s2.75-1.25,3.625-1.375s3-1.625,4.125-1.375s2.125-1,4.75,0.25S174.25,933.375,174.25,933.375z"/>
	<path fill="#B1D5B1" stroke="#000000" stroke-miterlimit="10" d="M326.875,793.5c-2.5-2.625-0.875-6.75,0-11.25
		s2.125-6,2.875-8.125S332.5,763,332.909,760s-0.534-5-0.534-9.25s-1.5-16.25-2.25-20.375s-2.125-9.75-3.25-14.375
		s-0.5-10.625,0-13.327s4.875-6.298,9.876-8.419s8.374-1.254,14.624-0.879s10.375,2.875,16.375,4.25s8.125,1.125,16,1.25
		s17.25-4,23.875-9.244l0.123-0.279l0.127-0.323c0.5,0.403,1.375-0.528,2.75-0.875s0.25-0.653,0.875-1.625s0.375-0.778,1.25-1.778
		s1.625-0.625,2.125-0.722s0.5-1.153,1.625-1.153s1.125-0.375,1.75-0.779s1.125,0.529,1.875,1.404s0,2,0,3.625s-0.5,2.45-1.25,3.153
		s-0.625,1.597-1.75,2.487s-1,1.359-1.539,2.484s0.164,2-0.211,3s0.625,3.5,0,4.5s-0.75,1.625-0.875,3.25s-1.125,2.125-1.25,3.5
		s-1.25,2.75-1.375,4.375s-0.5,3.25-1.847,4.5s0.222,2.125-0.528,3.5s-0.25,1.5-1.125,2.875s1.125,2.875,1.509,4
		s-0.134,3.25-0.009,4.75s-1.125,3.125-1.5,3.875s0.25,2.75-1.996,2.5s-0.504-0.375-1.129-2s0-2.125,0-3.625
		s-0.625-1.125-1.625-2.625s-1.875,0.125-1.875,1.25s0.625,2.125,0.625,2.5s-0.25,1.875-0.75,3.041s0,2.209,0,3.459
		s0.75,2.25,0.75,4.125s-0.375,3.375-1.125,5.25s-1,2-2.125,3s-2.25,1.75-3,2s-0.625,1-0.625,3.375s-0.75,1.375-1,3.375
		s-0.75,1.875-1,4s-1.75,3.25-2.875,3.875s-2,1.125-3.375,0.75s-1.375,1.5-3,1.028s0,1.347,0,3.972s-1,1.625-2.125,2.125
		s-1.25,1.5-1.75,1.905s-2.238,1.957-3.777,2.5s-2.723-0.405-3.723-1.405s-2.25-0.75-3-1.095s-1.75-0.78-2.125-1.155
		s-2.125-0.625-3.375-1.345s-1.625-0.53-2.875-0.53s-1.75,0.125-3,0.53s-1.25,0.595-2.375,1.22s-3.375-0.125-3.815-0.125
		s-2.31-0.75-3.06-1.095s-1.5-1.03-1.5-2.405s-0.875-0.875-1.5-1.625s-1.25-1.125-2.375-1.472s-0.875,0.097-1.73,0.847
		s-0.645,1-0.066,2.375s-0.078,1.75,0.876,2.213s-0.204,1.412,0,2.567s-1.329,0.72-2.079,0s-2.25-1.28-3.375-1.78
		s-1.125,0.25-2.125,0s-1.75-0.375-3-0.72s-0.5,0.72-0.896,1.345s-0.979,1.25-1.036,1.625s-0.443,0.875,0,2.03
		s0.432,1.345,1.036,1.97s0.021,1.375-1.036,2.25s-1.943,1.25-2.568,2S327.25,790.875,326.875,793.5"/>
	<polyline fill="none" stroke="#E41513" stroke-width="3" stroke-miterlimit="10" points="407.749,689.337 407.749,689.337 
		407.749,689.337 	"/>
	<path fill="#B1D5B1" stroke="#000000" stroke-miterlimit="10" d="M84,813.944c2,0.806,2,2.548,2,2.989s0.5,1.6-1,2.458
		s-3.375,1.983-3.75,1.983s-1-1.092-0.875-1.983S81,819.117,81,816.934s-0.125-2.92,0.5-2.989S84,813.944,84,813.944z"/>
	<path fill="#B1D5B1" stroke="#000000" stroke-miterlimit="10" d="M134.23,824.75c0.395,0.125,1.77,0.25,1.895,1.25
		s0.75,1.186,0,2.405s-2.375,1.595-3.25,1.345s-1.242-1.301-1.434-2.463s0.809-2.162,0.934-2.537S134.23,824.75,134.23,824.75z"/>
</g>
<g id="Corea_del_Sur_b">
	<path fill="#ECE0C6" stroke="#000000" stroke-miterlimit="10" d="M36.375,493c1.375-1,1.375-0.458,2.25-1.292s2.125-1.042,2.25,0
		s1,3.042,0,3.417s-2.625,0.5-3,1.375s-2.75,1.625-2.75,0.875s-1-1.814-1-3.032S36.375,493,36.375,493z"/>
	<path fill="#ECE0C6" stroke="#000000" stroke-miterlimit="10" d="M77.5,491.125c-0.271,1.869-1.788,2.02-2.591,1.944
		s-5.89-0.611-6.782-0.521s-1.427,0.713-2.32,0.803s-2.409-0.37-2.588,0.351s-2.32,1.167-0.536,1.97s2.588,1.16,3.391,1.517
		s2.409,1.035,2.855,1.812s2.052,2.439,3.212,2.5s1.963-0.883,2.945-1.125S76.873,499.83,78.3,499s2.409-0.823,3.212-1.317
		s1.874-1.291,2.499,0s0.536,2.718,0,3.253s-0.893,0.54-0.893,1.876s0.981,3.3,1.785,3.567s2.588,0.536,3.347-0.446
		s1.918-2.316,2.275-3.121s3.123-3.429,3.659-3.813s2.052-0.508,2.588,0s1.25,1.848,1.25,3.007s-0.089,2.231-0.536,3.302
		s-0.268,2.676-1.428,3.301s-1.547,2.32-2.871,2.945s-1.948,2.142-3.019,2.142s-2.32,0.096-2.588,1.297s1.07,2.986,1.695,3.343
		s4.194,1.25,4.284,0s1.428-1.249,2.052-2.052s2.409-1.428,2.855-2.588s0.892-1.428,1.517-2.41s1.339-2.155,2.32-1.792
		s2.588,0.454,2.945,1.256s1.785,1.517,1.874,1.963s0.714,1.16,1.338,1.16s1.16,0.089,1.16-1.428s0-2.32,0-3.48
		s-0.602-0.446-0.747-1.963s-0.123-2.677,0-3.748s1.55-4.372,1.907-4.908s4.551,1.214,5.176,0.651s1.03-2.526,0.292-3.418
		s-0.471-1.429-1.363-2.231s-0.357-0.713-2.409-0.713s-3.814-0.002-3.603-1.607C108.729,491.12,77.5,491.125,77.5,491.125z"/>
	<path fill="#ECE0C6" stroke="#000000" stroke-miterlimit="10" d="M123.5,493c0,0,0.845,1.958,1.38,2.939s1.874,1.963,1.874,2.588
		s1.517,1.338,2.23,2.499s1.875,2.32,2.41,2.766s1.605,0.286,2.32,1.214s1.005,2.536,1.606,1.374s-0.089-2.944,1.16-3.123
		s2.053,0,2.677,0.892s1.695,1.883,2.32,2.637s2.059,1.468,2.189,2.271s1.38,2.588,1.291,3.212s0.892,3.042,2.052,2.726
		s1.963-0.495,2.677-0.941s1.071,0.09,1.071-1.606s0-2.767,0-3.837s-0.893-1.428-0.893-2.499s-0.357-1.695,0.446-1.695
		s1.517-0.179,2.855,0.089s2.945,1,4.194,0.5s1.25-0.863,3.034-0.994s3.837-0.762,4.64,0s1.338,1.047,2.32,0.994
		s1.785,0.571,2.499,1.106s2.32,0.724,2.677,1.388s0.981,1.632,2.231,1.996s1.695,1.345,2.231,1.702s1.695,1.428,2.945,1.25
		s2.41-0.536,3.391-0.982s1.178-1.428,1.793-2.499s1.889-1.785,1.877-2.588s-0.616-2.326,0.623-2.368s1.89-0.756,1.877,0.494
		s-0.169,3.302,0.177,4.284s0.193,2.32-0.177,3.212s-0.548,0.803-0.638,2.499s-0.357,2.41-0.089,3.391s-0.178,1.827,0.357,2.609
		s0.38,1.764,0.993,2.478s-1.24,4.956-2.5,2.522s-0.522-3.504-0.623-4.575s-0.25-1.16-0.667-2.409s1.011-1.517-1.755-1.428
		s-4.729-0.268-5.354,0.446s-1.517,1.16-1.517,2.409s-0.713,3.376-0.178,4.053s1.338,2.373,1.338,3.086s1.339,2.347,1.963,2.914
		s1.428,0.663,1.785,1.596s1.071,1.341,2.142,2.03s1.719,1.134,2.243,1.938s0.078,6.707-1.083,7.19s-2.231,1.02-3.034,1.02
		s-0.714,0.713-0.714,1.695s-0.269,1.873,0.445,2.586s1.517,2.23,1.785,2.587s1.897,1.875,3.224,2.856s1.862,1.785,3.022,2.499
		s1.161,1.07,2.767,2.766s2.32,2.142,2.766,4.016s1.901,2.677,0.817,3.48s-1.352,1.517-2.155,1.16s-1.695-0.446-2.588-1.606
		s-1.221-1.619-2.752-1.434s-1.773,0.898-2.5,1.702s-0.16,0.625-0.667,1.963s-1.29,1.874-1.21,2.945s0.646,2.319,1.21,3.034
		s1.301,0.981,1.29,2.231s-0.012,2.588,0.881,2.053s0.74-0.714,1.619-1.696s1.147-1.785,2.396-1.785s1.874,0.09,2.855,0.625
		s2.063,0.713,2.013,1.963s-0.317,2.766-1.121,3.302s-0.803,3.034-1.517,2.499s-0.535-1.874-1.785-2.588s-0.803,0.536-0.357,1.428
		s0.625,2.23,0.446,3.123s0.714,2.231,1.428,2.677s1.544,1.071,2.512,2.052s1.949,2.855,2.485,2.945s2.576,1.071,3.162,1.517
		s1.567,0.893,2.549,1.517s1.339,1.785,2.41,1.695s1.963-1.14,2.499,0.367s1.517,1.926,0,2.756s-4.105,2.766-5.176,2.409
		s-3.837-0.179-4.819-0.446s-1.784-1.963-1.963-3.034s0-1.159-0.536-2.587s-1.16-2.767-2.409-3.57s-1.785-1.517-3.748-1.695
		s-2.654-0.982-3.826-0.179s-1.508,1.071-2.5,1.696s-1.795,1.071-2.598,0.089s-1.516-1.428-2.23-3.124s-1.874-2.766-1.874-3.837
		s-1.517-0.714-1.606-1.16s-1.874-1.963-1.874-0.536s-0.536,2.409,0,3.926s0.674,2.231,1.185,3.034s-0.56,1.696-1.096,3.124
		s-0.089,2.677-0.625,3.659s-1.874,4.609-2.32,3.063s-0.446-2.329-0.446-3.588s-0.268-0.992-0.803-2.331s-0.803-0.624-1.249-2.23
		s-1.338-2.142-1.428-3.213s-0.625-1.071-1.517-1.517s-1.518-1.071-2.767-0.625s-2.052,0.535-2.499,1.785s-0.803,2.142,0.089,2.945
		s0.625,1.517,1.606,2.677s1.784,0.645,1.874,2.509s-0.625,3.381-0.892,4.362s-0.178,2.499-1.428,3.391s-4.729,3.748-5.711,3.479
		s-1.16-1.25-1.16-2.41s0.803-1.606,1.16-2.499s0.625-1.16,1.25-2.142s0.535-1.875,1.338-2.41s0.803-2.32-0.357-2.766
		s-1.785-0.357-2.677,0.178s-1.081,0.179-1.343,1.339s0.094,3.926-0.709,3.837s-1.249-0.357-1.695-1.16s-0.625-1.606-1.696-0.892
		s-2.499,1.16-2.499,2.052s0.536,2.32,0.536,3.302s-0.089,2.588-1.071,2.945s-1.963,1.516-3.748,2.052s-3.48,1.25-3.569,2.231
		s0.892,2.498,1.963,2.498s1.963,0,3.302-0.803s2.767,0.445,3.748,0.803s3.213,2.409,3.48,4.016s1.507,2.142,1.958,4.016
		s0.808,5.443,1.879,5.443s1.339,0.148,1.606-1.487s0.178-2.26-0.179-3.599s-1.071-3.392,0.446-4.105s1.606-2.052,2.766-0.803
		s3.034,0.712,3.034,2.186s-0.803,2.455-1.071,3.437s1.428,1.427,1.874,0.089s1.393-1.339,1.723-2.409s1.489-1.786,2.471-1.116
		s2.053,0.759,2.677,1.919s1.875,2.054,0.536,3.124s-1.875,2.142-2.767,3.569s-2.141,0.803-1.963,2.23s0.714,1.784,1.249,2.498
		s1.695,1.784,1.785,2.944s-0.892,3.749-0.268,4.998s1.963,1.338,2.409,2.498s-1.338,2.142-1.428,3.302s-0.625,2.052-0.625,3.123
		s1.606,1.785,2.052,3.034s0.713,2.232,0.625,3.392s0.803,2.409,1.517,2.944s0.763,2.498,0.649,3.658s-0.381,3.837-0.917,5.265
		s-0.446,2.498-1.785,3.302s-2.945,1.34-2.053,2.231s2.321,1.339,3.57,0.981s2.766-0.914,3.926,0.123s1.606,2.543,2.766,3.084
		s1.963,2.415,2.767,2.683s1.459,0.357,1.934,1.874s0.239,2.677,0,3.837s-1.22,3.991-2.648,3.914s-2.945-0.612-3.034,0.548
		s-1.517,2.052-0.892,3.658s1.249,2.499,2.766,3.034s3.258,0.982,4.976,0.625s2.966-0.277,4.126,0.129s2.818,2.101,0.874,2.101
		s-3.283-0.09-3.372,0.714s0.228,1.874,0.872,2.855s1.5,1.34,2.5,2.678s0.695,2.766,0,3.658s-0.825,0.714-2.5,0
		s-2.358-1.784-3.667-2.142s-1.845,0.179-2.916,1.339s-2.32,1.427-2.677,2.766s-0.255,3.688-0.842,4.7s-1.875,0.922-3.774,0.922
		s-1.988,1.428-2.88,1.874s-1.16,1.16-2.142,1.606s-1.579,1.517-2.083,2.409s0.834,2.053,1.459,2.32s2.32,0.714,3.748,0.714
		s3.926-0.535,5.086-0.535s2.588-1.339,3.213,0.535s0.446,3.837,0.089,4.551s-1.874,0.893-2.499,1.428s-1.427,1.07-2.409,1.07
		s-1.25,0.18-2.856,0.357s-2.052,0.624-3.48,1.338s-1.875,0.268-2.767,1.606s-1.962,2.409-2.23,3.302s-1.696,4.104-1.963,5.265
		s-1.784,3.123-2.052,4.193s-0.179,2.23-0.803,3.391s-0.268,1.875-1.25,3.213s-2.142,1.338-2.588,2.498s-0.446,2.054-0.714,3.392
		s-0.357,3.033,0.714,4.104s2.767,2.32,3.927,3.034s2.945,1.249,3.212,2.855s-0.089,2.32,0.714,3.034s0.268,2.912,0.357,3.999
		s0.446,1.98-0.981,2.516s-2.677,1.517-3.837,0.803s-3.212-0.268-3.212-1.606s0.446-3.159,0.446-4.212s-0.357-2.302-0.982-3.194
		s-0.455-1.607-2.235-0.804s-2.404,1.784-3.386,2.588s-3.213,2.142-3.837,3.302s0.178,1.785,1.071,2.945s2.588,2.052,3.391,2.944
		s0.981,1.607,1.338,2.231s1.428,2.319,0.893,3.926s-1.071,3.213-1.517,4.373s-0.178,1.604-0.178,2.765s0.536,1.784,1.517,1.874
		s1.784,0,2.23,1.606s0.803,2.767,1.874,4.194s2.231,3.034,3.124,3.48s1.784,0.804,3.123,0s2.677-1.071,3.659-2.053
		s1.518-0.892,2.053-1.963s1.071-1.696,1.338-2.945s0.536-1.963,0.803-2.855s0.356-2.587,1.249-2.677s2.677,0.624,2.945,2.23
		s0.179,2.856,0.179,4.105s0.268,2.319,0.803,3.033s1.16,1.339,0.089,1.339s-2.498-1.517-3.391,0.179s-2.231,2.766-2.677,3.212
		s-0.535,0.981,0.089,1.606s0.893,2.23,2.231,3.034s1.695,2.141,1.606,3.391s-0.536,2.588-2.231,2.767s-3.212,0.714-4.104-0.535
		s-1.016-1.161-2.204-2.499s-1.456-2.053-2.794-1.428s-1.517,1.963-0.535,3.034s2.142,2.052,2.766,3.123s2.107,2.499,0.563,2.767
		s-3.775-0.088-4.757-1.07s-2.142-1.339-2.677-2.945s-1.338-2.054-1.338-3.927s0.714-2.677-0.179-3.658s-1.428-2.231-2.499-2.499
		s-3.212-0.179-3.569,1.16s-1.071,3.57-1.071,4.552s0.446,3.034,1.16,4.104s1.518,2.498,2.41,3.123s0.624-0.005,1.517,1.246
		s1.874,1.251,2.499,2.144s2.32,1.696,3.48,1.785s3.48,1.518,4.105,0.714s1.071-1.34,1.428-1.964s1.517-0.267,2.142,0.536
		s2.41,2.41,0.893,3.034s-2.711-0.804-3.542,0.624s-1.043,3.928,0,4.552s1.221,1.427,1.4,2.319s1.099,2.499,0.416,3.659
		s-1.308,2.32-1.308,3.302s0.892,2.498,1.695,3.391s1.071,1.785,1.071,2.945s0.625,2.052,1.963,2.052s3.034-0.089,3.659-1.249
		s1.963-2.319,2.409-3.391s0.179-2.231,0.893-3.48s0.268-4.015,2.052-4.551s4.94-1.07,4.879-1.874s1.189-2.944,1.546-3.748
		s0.714-1.874,0.981-3.48s1.16-2.766,1.16-3.926s0.535-3.034,1.606-3.034s1.874,0,1.874,1.428s0.268,4.193,0.268,5.532
		s-0.446,3.479,0.268,4.551s0.981,3.213,2.499,3.213s5.166,0.624,6.465-0.446s3.708-1.338,4.422-2.23s1.874-3.034,1.874-4.194
		s-0.446-6.336,0.357-7.942s0.981-3.391,2.231-4.283s3.302-1.428,5.533-2.588s2.538-2.142,3.946-2.409s5.067,0.357,6.495-0.535
		s2.41-0.714,2.499-1.874s-1.071-4.194,0.625-4.194s5.086,1.785,5.443,2.767s1.16,2.052,1.338,3.212s0,2.945-1.071,2.945
		s-1.338-0.269-1.695-1.518s-1.428-1.517-2.053-0.803s-1.16,1.695-1.428,3.302s-0.178,2.23-0.268,3.391s0.625,3.48-0.714,3.48
		s-2.32-1.517-3.034-1.517s-1.249,1.159-2.766,1.517s-2.588,0.802-2.767,1.517s-1.338,5.801,0.625,5.533s4.194-0.803,5.176-0.535
		s2.23,0.357,2.766,1.16s1.875,2.32,2.32,2.855s0.893,1.695,2.588,2.409s3.123,1.159,3.837,0.356s2.231-2.23,2.231-3.658
		s1.785-3.659,1.785-5.087s0.981-3.747,1.874-4.104s4.989-0.09,6.243-0.625s2.413-1.783,1.342-2.766s-2.41-2.054-3.302-2.678
		s-1.695-0.714-2.855-1.963s-2.499-1.159-2.588-2.409s-0.268-1.963-0.803-3.034s0-1.696,0.536-2.767s0.446-1.606,0.625-2.32
		s0.804-0.177,0.179-1.605s-1.071-3.658,0-4.729s1.963-2.231,3.212-2.678s3.788-1.159,5.419-0.356s3.059,3.568,3.416,5.086
		s1.071,4.909,1.695,5.979s-0.268,2.945-0.714,3.302s-0.268,4.016,0.357,4.818s1.964,2.589,2.767,2.499s1.25-2.32,2.142-2.767
		s0.178-5.265,0.446-6.157s2.231-1.16,2.945-0.893s2.223,0.447,2.271,2.053s0.852,3.213,0.763,4.283s-0.002,2.41,0.891,3.927
		s1.518,3.211,2.053,3.747s1.159,1.518,2.319,1.518s1.071-1.964,2.053-2.945s0.714-6.781,0-7.674s-0.982-1.634-1.606-3.896
		s-0.714-2.839,0-3.22s0.268-5.021-0.268-6.092s0.535-2.767-0.446-3.213s-1.784,0.804-3.123,1.071s-3.569,0.625-4.551,1.16
		s-2.41,0.267-3.124-0.357s-1.606-1.159-2.231-2.944s-1.517-2.409-1.695-2.855s-1.695-2.945-0.446-3.213s3.48,0.268,3.659,1.428
		s0.892,1.874,2.231,1.606s3.838-1.16,4.908-1.874s2.142-2.027,3.837-1.906s4.818,0.567,5.979,0.746s2.409,0.268,1.874,1.16
		s0.178,3.438-1.606,3.593s-2.141,0.244-2.052,1.672s0.179,2.254,0.981,3.313s0.981,1.187,0.981,2.952s-0.445,4.89,0.357,5.692
		s0.803,4.104,2.23,4.016s0.713-1.875,1.249-3.213s0.624-3.343,1.695-2.742s2.499,0.243,2.678,1.761s1.427,1.695,1.784,3.034
		s1.16,1.07,1.785,1.428s4.888,1.606,4.675,0.179s-0.659-5.218,0.769-6.401s1.428-3.024,2.142-3.22s0.446-2.225,0-3.485
		s-1.487-1.888-1.478-3.313s-0.327-2.408-1.433-2.766s-3.158-1.161-3.961,0.178s-0.446,4.842-0.893,5.901s-0.357,1.773-1.428,1.773
		s-3.034-0.155-3.034-1.773s-0.803-2.42-0.535-3.491s0.714-1.428,1.16-1.874s1.249-0.892,0.268-1.874s-1.785-1.161-2.499-2.678
		s-1.696-4.462-0.714-5.265s1.249-1.606,2.588-0.446s1.964,3.479,2.945,3.123s1.249-0.802,1.517-2.052s0.892-3.569,1.605-4.104
		s2.32,0.179,2.32,1.16s-0.446,3.569-0.357,4.908s0.55,2.942,1.518,3.569s0.955,0.535,3.021,1.428s2.601,0.358,3.939,1.25
		s4.388,0.625,4.871,0.268s1.274-1.964,1.593-2.767s2.46-4.73,4.869-2.053s3.463,3.214,3.873,4.105s2.464,1.204,2.642,1.807
		s1.784,1.316,2.498,0.424s1.964-1.25,2.499-1.16c0,0,0.486-1.419,0.408-1.903s-0.078-1.5-0.078-1.891s-0.039-0.986-0.039-0.986
		l-0.055-0.982c-2.5-2.625-0.875-5.75,0-10.25s2.125-6,2.875-8.125S332.5,763,332.909,760s-0.534-5-0.534-9.25
		s-1.5-16.25-2.25-20.375s-2.125-9.75-3.25-14.375s-0.5-10.625,0-13.327s4.875-6.298,9.876-8.419s8.374-1.254,14.624-0.879
		s10.375,2.875,16.375,4.25s8.125,1.125,16,1.25s17.25-4,23.875-9.244c0,0,0.375-0.881-1-1.631s-1.75-2.693-2.125-3.972
		s-0.25-1.712,0.75-2.808s1.25-0.404,1.25-2s0.875-1.596,0.125-3.471s-0.75-3.75-1.375-5.25s-0.625-2.625-1.125-3.75
		s-0.625-4-0.625-5.5s-0.375-5.5,0.375-6.875s0.75-3.375,1.5-4.75s0.75-2.625,0.75-4.125s1.969-2.125,1.547-3.625
		s1.541-7.375,0.06-9.5s-0.856-3.875-1.481-5.625s0-3,0.75-4s0.338-2.875,1.294-3.625s0.956-0.875,1.331-2.25s0.75-2.125,0.75-3.75
		s-0.125-3.375,0-4s-0.875-2.125-1.875-3.75s-0.75-2.375-1.375-3.75s-0.875-4.25-0.875-6.125s1-6.375,0.375-8.125
		s-1.5-4.375-3-6.375s-1.875-2.875-3.125-4.375s-1.875-6.625-1.875-8.75s-1.25-5-1.875-6.625s-2.125-2.625-3.125-3.875
		s-2-1.884-2.75-3.379s-2.375-3.371-3-4.246s-2.25-2.5-2.375-3.625s-0.5-2.625-1.5-4s-0.5-1.75-1.75-3s-1.25-3.75-1.5-4.375
		s-3.5-3.133-4.375-4.754s-0.326-3.996-0.726-5.121s-1.649-3.25-2.899-5.125s-3.75-2.75-4.5-4.375s-2.375-4.125-3.875-5
		s-2.75-3.5-4.625-5s-0.75-3-2.375-3.5s-0.5-1.25-1.5-2.25s-3.495-5.484-3.495-5.484l-0.375-0.44L123.5,493"/>
	<path fill="#ECE0C6" stroke="#000000" stroke-miterlimit="10" d="M169.875,513.125c2.125,1.25,3.25,2.75,4,2.75s0.875,0.75,1,2.125
		s-0.125,3.375-0.625,4.125s-0.75,1.5-0.875,2.625s0.25,2.12,0.375,2.81s-0.343,1.182-1.359,2.436s-2.141,1.313-4.016,1.596
		s-3-1.225-4.125-1.596s-2-1.621-2-2.996s1.5-1,1.875-1.5s0.875-1.498,0.5-3.124s0.625-2.664-0.875-3.395s-2-0.731-2.125-2.481
		s-0.25-4.125,0.75-4.25s1.25-1.625,2.25-1.625S169.875,513.125,169.875,513.125z"/>
	<path fill="#ECE0C6" stroke="#000000" stroke-miterlimit="10" d="M173.5,540.125c1.125-1.875,2.5-1.131,3.25-1.503
		s1.75-0.125,2.125,0.751s1.25,2.655,0,2.391s-1.477,0.111-2.363,0.986s-2.512,1.75-3.762,1.75s-1.75-0.875-2.5-1.75
		s-0.875-0.045-0.75-1.272S173.5,540.125,173.5,540.125z"/>
	<path fill="#ECE0C6" stroke="#000000" stroke-miterlimit="10" d="M182.5,568.125c-0.125-0.75,0-0.75,0.5-1.25s0.375-0.625,0-1.5
		s-1.5-2.25-2.125-1.625s-1.5,1.5-1.875,1.5s-0.625,1.25-0.625,1.625s0.172,1.5,1.148,1.75s0.807,1.75,1.329,1.75
		S182.5,568.125,182.5,568.125z"/>
	<path fill="#ECE0C6" stroke="#000000" stroke-miterlimit="10" d="M144.125,564.375c1,0.375,2,0.375,2.375,1.125s2,2.375,2,2.375
		s0,1.5-0.875,1.5s-2.25,0-3.5,0s-2-0.875-2.25-1.625s-0.875-0.875-0.75-1.875s0.125-1.5,0.875-1.5S144.125,564.375,144.125,564.375
		z"/>
	<path fill="#ECE0C6" stroke="#000000" stroke-miterlimit="10" d="M160.5,630.625c0.75-0.125,1.25,0.75,2,1.625s1.625,2,1.75,3.25
		s1.75,3.875,1.75,5.125s0.875,3.625,0.875,4.375s0.25,3.5-0.75,3.625s-1.973-0.625-2.424-2.25s-0.701-2-1.701-3.125
		s-2.25-3.373-2.75-3.624s-0.5-1.626-0.625-2.501s-0.875-2-0.875-3s-1.125-2,0-2S160.5,630.625,160.5,630.625z"/>
	<path fill="#ECE0C6" stroke="#000000" stroke-miterlimit="10" d="M136.25,780.668c0.875-0.793,0.25-1.543,0-2.043
		s-1.75-1.289-1.875-0.457s-0.25,2.543,0,2.5s-0.208,0.832,0.583,0.957S136.25,780.668,136.25,780.668z"/>
	<path fill="#ECE0C6" stroke="#000000" stroke-miterlimit="10" d="M141.375,782.625c1.125,0.625,2.25,1.25,2.25,2.25
		s1.875,3.375,0,3.375S140.5,788,140,787.125s-0.5-1.5-1-2.375s-0.125-1.375,0-2.125S141.375,782.625,141.375,782.625z"/>
	<path fill="#ECE0C6" stroke="#000000" stroke-miterlimit="10" d="M136.701,795.375c-0.201,1.125-0.174,1.5,0,2.5
		s2.293,2.25,2.046,1.625s0.128-1.25,0.753-1.375s1.625,0.961,1.5,1.543s-1,2.082-1.625,2.582s-1.125,1-1.625,2.125
		s-2.068,3-2.284,1.625s0.216-2.75,0-3.5s-1.591-2.375-2.341-2.75s-3-0.875-3.25-2.25s-0.125-1.625,0.75-2.125s1.875-0.5,2.25-1
		s1.042-0.75,2.083-0.75S136.701,795.375,136.701,795.375z"/>
	<path fill="#ECE0C6" stroke="#000000" stroke-miterlimit="10" d="M136.125,809c0.125,0.75,0.651,3,0.576,3.5
		s0.674,1.75,1.299,1.375s1.125-0.875,1.875-1.5s1.706-0.75,1.728-1.75s-0.478-1.125-1.228-2.25s-1.256-2-1.628-1.25
		S136.125,809,136.125,809z"/>
	<path fill="#ECE0C6" stroke="#000000" stroke-miterlimit="10" d="M125.75,815.5c1.875-0.75,2.897-1.125,4.011-1
		s2.364,0.125,1.239,1s-2.625,2.625-3.875,3.375s-3.625,0.625-3.625,0s0-0.383,0-1.941S125.75,815.5,125.75,815.5z"/>
	<path fill="#ECE0C6" stroke="#000000" stroke-miterlimit="10" d="M123.5,808.125c0.065,0.229,0.156,0.458,0.264,0.667
		c0.305,0.589,0.742,1.018,1.111,0.833c0.5-0.25,0.75-0.461,0.625,0.77s-1,1.605-2,1.48s-1.5-0.602-1.5-1.863
		S123.5,808.125,123.5,808.125z"/>
	<path fill="#ECE0C6" stroke="#000000" stroke-miterlimit="10" d="M127.471,805.625c0.404-0.125,0.904,0.941,1.279,1.221
		s0.25,0.154,0,1.279s-0.434,2.148-1.279,1.887s-2.157-0.262-1.939-1.137s-0.843-2.309,0-2.029S127.471,805.625,127.471,805.625z"/>
	<path fill="#ECE0C6" stroke="#000000" stroke-miterlimit="10" d="M156.125,829.75c1,1.25,1.75,2.75,2.125,3.125
		s1.125,0.75,1.125,2.25s0.5,3.75,0,5.25s0.125,2.375-0.5,3.5s-1,2.125-2.75,3s-4.75,1.75-5.875,2.625s-1.875,1.5-3,2.5
		s-2.625,1.125-3.375,0.75s-1.25-0.125-1.625-2.125s0.271-2.375-1.239-3.25s-1.892-1.75-2.264-3.125s2.399-2.305,2.264-2.902
		s1.114-2.473,1.864-2.473s2.125-1,3.75-1.75s1.935-1.5,2.53-2.75s0.97-1.875,0.97-3.125s-0.875-2.625,1.125-2.75
		s2.875-0.25,3.875,0.5S156.125,829.75,156.125,829.75z"/>
	<path fill="#ECE0C6" stroke="#000000" stroke-miterlimit="10" d="M172.375,870.375c0.75,0.25,2.375,0.625,2.5,1.125
		s-0.5,1.625-1.25,1.625s-1.5,0.875-2.5,0s-1.625-1.5-1.5-2.125S172.375,870.375,172.375,870.375z"/>
	<path fill="#ECE0C6" stroke="#000000" stroke-miterlimit="10" d="M176.75,863c0.625,0.375,1.125,0.5,1.75,0.75s0.5,1.25,0.875,2
		s1,2.625-0.625,2.5s-2.5,0.125-3.25-0.625s-2-1.75-1.625-3.375S176.75,863,176.75,863z"/>
	<path fill="#ECE0C6" stroke="#000000" stroke-miterlimit="10" d="M201.547,866.375c1.953,0.375,1.672-0.125,2.5,1.125
		s2.453,2.25,0.828,2.875s-2.625,1.5-3.875,1s-2-0.852-2-2.426S201.547,866.375,201.547,866.375z"/>
	<path fill="#ECE0C6" stroke="#000000" stroke-miterlimit="10" d="M187.875,849.25c0.5,1,1.375,1.875,2,2.875s1.5,1.375,1,2
		s-2.375,1-3,0.875s-2-0.875-2.375-1.25s-2.5-1-2.25-2.125s0.625-1.75,1.25-2.375S187.875,849.25,187.875,849.25z"/>
	<path fill="#ECE0C6" stroke="#000000" stroke-miterlimit="10" d="M192.625,845.625c0.25-0.875,1-2.75,2-2.125
		s3.615,1.125,2.37,2.125s-0.921,2.375-2.021,2.875s-3.429,0.57-3.952,0.473S192.625,845.625,192.625,845.625z"/>
	<path fill="#ECE0C6" stroke="#000000" stroke-miterlimit="10" d="M203.25,846.192c1.25-0.192,3.094,0.183,3.297,1.308
		s-1.25,1.875-1.648,2.25s-2.453,0-2.613,0s-0.566-1.5-0.738-2.25S203.25,846.192,203.25,846.192z"/>
	<path fill="#ECE0C6" stroke="#000000" stroke-miterlimit="10" d="M196.995,850.5c1.005,0.25,2.88,0.621,3.255,1.498
		s0.875,2.252,0,2.502s-3.25,0.172-3.875,0.523s-1-0.398-1.5-1.273s-0.985-1.75-0.743-2.625S196.995,850.5,196.995,850.5z"/>
	<path fill="#ECE0C6" stroke="#000000" stroke-miterlimit="10" d="M223.5,839.875c1.875-0.375,2.25-1.25,2.875-2.125
		s0.75-1.625,2.25-1s2.75,2,2.75,3.125s-2,3.25-2.75,3.5s-4.5,1-5.75,0.625s-2.75-1.75-3.625-2s-1.625-0.627-1.625-1.688
		s0.625-2.562,2.125-2.312S223.5,839.875,223.5,839.875z"/>
	<path fill="#ECE0C6" stroke="#000000" stroke-miterlimit="10" d="M252.375,839.125c0.75,0,2.25,1.123,2.875,1.187
		s1,1.438,1.375,1.813s-0.5,1.25-1.375,1.25s-3.052,0.375-3.838,0s-2.787-1.9-2.787-2.7s0.125-2.3,0.75-2.425
		S252.375,839.125,252.375,839.125z"/>
	<path fill="#ECE0C6" stroke="#000000" stroke-miterlimit="10" d="M250.75,836.52c1.125,0.355,0.323-0.145,0.662-0.645
		s0.588-3.125-0.662-2.375s-3,0.256-3.125,1.503s0,2.372,1,2.122S250.75,836.52,250.75,836.52z"/>
	<path fill="#ECE0C6" stroke="#000000" stroke-miterlimit="10" d="M272.834,832.375c1.166,1.125,1.416,1.375,1.541,2.375
		s0.875,3.32,0,2.41s-3.25-1.633-3.75-1.896s-0.5-1.264-0.875-2.889s0.25-1.75,1-1.75S272.834,832.375,272.834,832.375z"/>
</g>
<g id="Corea_del_Norte">
	<path fill="#F5C8DF" stroke="#000000" stroke-miterlimit="10" d="M9,310.25c0.422-0.844-1.25-3,0-5s-0.25-3.416,2.75-4.583
		s6.5-3.167,6.5-3.167s3.5-1,3.75-3.25s1.75-3.25,1.25-4.75s0-3.5,1.25-4.5s3.5-3.25,4.5-3.5s-0.25-1.5,2.25-2.75
		s2.125-2.125,2.5-2.125s1-1.125,1.625-1.125s0.875-1.75,2.625-2.25s1.875-1.75,2.625-1.875s1.75-1.125,2.375-1.625
		s1.375-0.75,2.375-1.5s1.5-0.875,2.375-0.875s1.5-0.875,2.25-1.125s2.5-0.5,2.5-1.375s1.125-1,1.125-2.125s2.125-3,2.125-3.875
		s0.625-1.375,1.75-1.375s2.625,0,2.625-1s1.5-2.028,2-2.514s1.125-1.236,2-1.361s2.625-1.25,3-1.125s3.5-0.02,4.25-0.01
		S73,250,73,248.625s0.875-2.125,0-2.625s-0.473-1.625,0.389-2.125s1.361-1.75,3.111-1.875s1.5-1.25,3.25-1.25
		s2.375-1.125,3.875-1.25s2.875-1.25,4.375-2.375s2.375-1.125,3.625-1.5s3-0.625,3.75,0s2.125,0.5,3.25,0.625s1.625-0.5,3-0.5
		s2.25-0.5,2.5-1.75s1.375-2.125,1.375-3s1.708-0.75,2.167-1.5s0.333-0.75,2.208-1s4.5-0.5,4.75-1s1.125-1.25,1.625-1.875
		s1.375-1.25,2.125-1.25s0.75-0.375,1.75-0.875s2.375,0,1.875-1.5s-1.875-0.25-1.75-2s1.337-2.25,1.856-2.25s2.519-0.625,2.519-1.5
		s0.625-1.625,1.25-1.875s0.875-0.25,2.25-1.125s2.125-0.5,2.875,0.625s0.875,0.625,2.25,0.875s2.75-0.375,3.625-0.875
		s2-1.875,3.25-1.875s4,1.25,4.25,0s1.75-2.375,2.875-2.75s0.25-1.125,1.75-1.375s1.75-0.75,2-1.875s1.176-1.5,1.525-2.625
		s0.6-2.25,0.975-3.25s0.5-1.75,1.5-1.75s1.375-0.75,2-1.75s1.875-1.875,1.875-2.5s1.625-0.75,1.625-1.875s0.625-2.25,1.5-2.875
		s1-1.5,2.125-2s1.875-1.75,2.125-2.125s0-1.5,1.25-1.5s2.5,0,3-1.25s1.875-1.375,1.875-2.5s1.25-2.5,1.25-4s0-2.5,0.875-3.5
		s1.5-2.125,2.5-2.125s2.5-1,3.25-1.125s2.25-1.5,2.75-2.25s2-1.5,1.875-2.25s-1-2.625-0.875-3.875s0.515-1.5,0.882-2.625
		s0.993-2.875,1.993-3.375s1.375-2.5,1.75-3.75s0.25-2.875,0.625-4.125s0.875-2.625,0.875-3.625s1-3.375,2.5-3.5
		s3.615,0.125,4.37-0.625s1.255-1.5,1.755-2.75s0.25-1.875-0.75-3.125s-0.5-3.125,0.375-2.75s2.125,0.875,3.5,1.375
		s3.625-0.75,4.375-0.625s3.125-0.098,3.875-0.799s1.625-1.326,1.75-2.326s0.25-2.5,1.875-1.75s4.125,0.625,5.625,2.125
		s1.75,1.5,2.5,2.125s1.625,2.625,2.25,3.25s0.5,2.125,0.625,3s-1.375,1.125,0,2.25s3.375,2.5,3.875,3.375s0.75,2,1.25,2.875
		s1.375,2,0,2.75s-2.75,1-1.875,2.375s2.25,2.375,3.5,2.375s2.875,1.375,3.75,1.375s3.127,0.25,4.188,1.125s3.437,2,4.312,1.875
		s2.573-0.375,3.912-0.25s1.713-0.75,3.463-0.75s2.625-1.375,4.5-1.125s5.293,0.75,4.709,1.5s-0.408,3.375,0.066,4.5
		s1.475,1.5,2.225,1.5s5.125,1.625,5.875,0.875s3.25-0.875,5-0.75s3.25,1.25,4.625,1s1.875-1.125,3.125-1.125s2.875-1.25,3.875-1.25
		s0.625-1.75,2.25-1.5s3.625,0,4.75,1s2,1.25,2.625,2.125S297,166,298,166s2.875-0.5,3.75-1.875s2.25-1.5,3.25-3.375
		s2.5-2.875,3-4.25s0.5-3,1.625-3.75s1.875-1.125,2.5-1.625s1.25-1.5,2-2.625s-0.375-2.75,0-4.25s1.5-1.5-0.75-3.375
		s-2.625-3.375-5.25-3.375s-1.469-1.25-3.797-1.75s-3.078-2.375-3.578-3.75s-2.125-1.5-1.75-3.75s0.125-3.25,0-4.75
		s-0.375-2.5-0.75-4.125s-1.25-1.75-1.625-3.5s-0.875-1.75-0.375-3.25s0.5-3.875,1.625-4.75s2-2.25,4.5-2.625
		s5.25-2.125,6.875-2.375s6.875,0.375,8.125,0s2.865-0.997,5.62-0.061s2.13-0.189,3.88,0.936s3.625,1.625,4.75,1.625
		s3.5-0.5,4.25-1.5s0.75-1,2.375-1s2.531-0.625,4.078,0.375s4.297-0.125,5.672,0s3.5-2.104,4.375-0.927s1.5,1.927,2.375,2.427
		s2.625,2.625,3.125,0.875S359,101,359.5,98.875s0.5-3.25,2.375-3.75s3.375-1.75,4.75-2.25s2.375-1.75,3.625-1.75
		s1.25-0.875,2.75-1.25s2.75-1.75,2.75-1.75s-0.375-1,0.875-2.25s2.627-0.375,2.376-2.625S377.25,79,378,78s2.125-1.125,2.25-2.625
		s-1.25-4,0-5.125s1.625-1.75,3-3.125s1.75-2.125,3.875-3.5s3.375-2.75,4.125-2.875s2.5,0.125,3.625,1.25s1.75,3.375,2.5,4.5
		s0.375,2.125,2.5,2.125s3.375,1.375,4,0s1.375-1.875,2.125-3s1.75-3.875,3.625-3.625s5.125,1.125,6-2.25s1.25-3,1.625-6
		s0.5-8.5,0.5-10.875s0.375-3.125,0-5.875s-0.416-3.875,0.167-6.125S417.75,27.75,418.75,26s1-2.83,2.125-4.665s1.375-1.71,2-3.585
		s0.625-3.125,1.5-4.5S424.75,10.125,426,8.5s2.5-2.25,4.75-1.625s3.25,1.75,4.875,1.75s0.25,2,2.375,1.5s1.375-2.25,3-2.125
		s3.625,0.25,3.375,2.125s-0.75,3.625-0.625,4.25s-1.582,2,0.646,2s0.479,0.5,3.104,0.5s3.125-0.375,3.25,2.25s1.625,3.75,1,5.25
		s-0.875,2.875-0.875,4.5s0.428,3.125,1.026,4.5s3.349,3.25,3.974,4s2,0.875,3.375,3.375s2.75,2.75,3.25,4.125s3.375,2.5,3.5,3.875
		s-0.625,3.25,0.625,3.125s2-0.75,2.5-1.875s-1-3.25,0-4.375S470.5,45,471.75,45.5s2,1.125,2,2.625s0.25,2.875,0,4.25
		s0.625,2.125,0.625,3.875s0.5,2.875,1,4.375s1.25,2,2.375,2.75s1.75,1.75,2.875,2.375s2.25,1.75,2.125,3s-0.105,2.875,0.01,5.25
		c0,0-3.01,1.25-3.385,1.25s-2.75-1.125-4.125-1.625s-2.375-0.625-3.875-1.25S469,71.25,467,71.875s-3.125,0.875-4,1.875
		s-2.875,1.875-3.5,3.25s-1.75,0.916-1.875,2.833s-1.125,2.542-1.25,3.167s-0.125,2.25-0.875,2.375s-0.676-0.25-1.838-1.375
		s-2.037-2.25-2.662-1.5s-1.625,1.25-2.375,2.25s-1.25,1.375-1.375,2.875s0,2.5-0.375,3.5s-0.625,1.5-1,2.75s-0.503,3.005-2,3
		s-2.457-0.75-3.541,0.125s-1.584,2.25-2.084,3.75s-1.75,2.5-2.5,4.25s-0.5,2.407-1.375,3.375s-2.25,2-3.375,3.25
		s-1.5,3.25-3.25,2.75s-2.625-1-3.5,0.25S424,118.375,424,120s-0.125,2.625-1.625,4.5s-1.125,2.375-2.75,3.75s-4,1.875-3.875,3
		s-0.5,2.5-1.5,3.375s-2.5,0.625-2.25,2.375s-1.375,2.5-1.375,3.75S410.25,143,410,144.625s-1.375,7.375,0,10.125
		s2.375,4.625,3.25,5.625s2.875,2.875,3.5,2.75s2.375,0.375,2.5,2.125s-0.125,3.5-1,4.875s0,1.875-0.875,3.875s-1.375,2-1.625,4.375
		s-0.375,9.75-0.875,11.5s-1.375,7.875-0.625,9.25s1.125,2.875,1.5,4.75s0.875,2.875,1.375,4.5s0.625,2.25,0.25,4.25
		s-0.875,3.25-3,3.25S411.25,216,410,217s-1.5,1.25-3.375,1.25s-4-0.125-4.75,0.875s-2,2.5-3.625,3.375s-2.32,1.75-5.598,2.75
		s-4.777,2-6.152,2.375s-2-0.375-2,1.5s-1.125,4-1.75,3.5s-2-4.625-2.625-3.5s-1.25,2-1.375,2.875s-1,3.875-1.25,5.25
		s-1,5.125-2.75,6.5s-5.25,4.75-5.875,6.25s-2.625,2.125-4.375,3.625s-6.875,5.5-8.625,6.5s-3.625,2.375-4.625,3.5
		s-3.25,3-5.125,3.5s-2.719,2.375-4.047,1.875s-2.078,0.5-2.828-1s-2.75-0.875-3,1s0.375,3.875,1.125,4.625s2.125,2.75,1.375,3.625
		s-1.5,2.5-3.5,3.875s-1.375,1.625-3.375,1.75S329,283.125,329,284.5s-0.5,2.25-2.375,2.75s-3.75-0.5-5.25,0.375
		s-3.875,0.375-6.125,4s-1.5,6-0.875,6.25s0.254,1.144-0.375,2.5s-3.375,1.5-5.625,0.125s-2.909-0.874-5-1.25
		s-4.125-2.625-5.5-2.625s-5.5-0.375-7.375,0s-3.625-0.375-5.625,1.25s-3.75,0.75-3.5,2.625s0.5,3.5,1.25,4.25
		s0.375,0.75-0.75,2.375s-1.75,2.375-3.5,3.125s-6.125,1.875-7.75,2.5s-4.875,1.375-6.625,2.75s-2.625,2.625-4,3.5
		s-3.125-0.125-4.375,1.625s-2.894,2.5-2.509,4.25s0.116,2.75,0,4.25s-0.491,2.75,0.634,4s2.375,0,3.125,1.625
		s2.125,2.875,1.25,4.125s-2.375,1.625-2.5,3.375s-1.375,0.5-1.375,2s-1.519,1.5-1.134,3.25s1.634,3.125,2.509,4.375
		s1.625,2.5,0.875,3.25s-1.875,2-2.75,2s-0.625-0.5-1.375-2s-1.75-1.5-2.375-0.75s-1.5,0.625-2.875,0.875s-2.375-0.25-2.75,1.125
		s-0.375,1.25,0.75,2.875s0.625,2.625,1.75,2s2.75-0.5,2.5,0.75s-0.5,1.875-2,2.5s-3,1.5-3.125,3.375s-1.125,5.5-0.125,6.5
		s3.481,3.125,3.991,3.375s4.241,0.503,5,1.126s2.134,2.751,3.009,2.5s2.25,0.292,4,0.021s2-0.022,2.25,1.103s0.75,2.25,2,2.5
		s2.25-0.247,3.375-1.124s4.668-0.499,5.084,0s2.541,4.874,2.916,6.624s1.375,4.972,2.75,5.923s3,3.327,4,3.577
		s2.75,1.75,3.875,3.125s2.625,1.5,2.875,3.375s1.875,3.625,3.5,3.75s3-0.375,4.125,1.125s3.875,4.875,4.875,4.875
		s2.25,2.75,3.5,2.875s6.125-0.125,7.5,1.125s2.75,3.75,2.875,5s1,2.375,1.5,3.75s2,3,3.625,3.75s3,0.875,3.125,3
		s1.125,3.875,1.625,7.375s1.125,4.75,2.625,7.875s3.375,6.375,5.25,9.375s2.5,4,4,7.625s4.375,12.25,4.375,12.25s2.125,3,3.5,4.25
		s2.875,2.875,3.625,4s2.072,3.047,1.906,2.922l1.224,2.279L123.5,493c0,0-0.384-0.339-0.879-1.794s-0.121-2.831-1.996-2.831
		s-3.25,0.125-5.125,0s-4.625,0.5-5.25-0.75s-0.875-1.625-2-2.625s-2.125-2-2-0.875s0.458,2.625,1.292,3.75
		c0,0,1.318,2.766,1.333,3.25H77.5c0,0-0.75-0.598-2.125-1.486s-2.75-0.857-2.875-1.686s1-1.953,1.25-2.703s1.375-1.125,2.5-0.75
		s2.125,1.25,3,1.375s1.875,0,1.875-0.75s0.125-1.125,0.5-1.75s-0.25-2.17-2.125-2.085s-3.5-0.79-3.875-0.165s-1.375,0.375-4,0.875
		s-5.125,0.625-5.5,0s-3-0.5-4.125-0.5s-1.625-1.125-2.375-2S57,476.75,55,477.125s-3.875,1.625-5.625,2s-2.625-0.25-4.25-1
		S42,478.375,41.75,477s-2.625-1.875-1.625-3.125S41.5,472.5,43.25,472.5s2.75-1.375,4.875-1.625S52,468.75,53,467.625
		s1.542-2.375,1.458-4.25s-0.792-2.875,0-5.25s3.792-5.5,3.917-6.75S59,449.125,59.5,448s2.625-3.375,3.375-4.5
		s1.75-3.125,2.5-4.125s1.375-2.25,0.75-2.625s-2.25-3.875-0.75-4.125s2.75-1.375,3.5-1.125s4.5,3.25,4.625,2
		s0.125-1.125,1.125-2.375s1.375-1.75,0.5-2.375s-1.875-0.5-1-1.75s0.375-2.625,1.875-2.125s1.5,1,3.25,1.625s4,1.125,4.625,0.25
		s1.5-0.75,2.375-0.25s3.75,0.375,4.375-1s1.875-2,3.25-2.125S97,422.75,98.375,423s3.625-2,1.75-3.625s-2,0.125-3-0.375
		s-2.5-1.75-3.75-0.5s-1.625,2.25-2.875,2.25s-4.875,1-5.75-0.5s-1.75-2-2.875-4.125S77.25,413.75,76.25,413s-1.125-1.875-1.25-3.5
		s-1.125-3.215,0.125-4.17s3.25-3.58,3.875-5.33s3.625-6,4.25-8.625s3-6.375,3.75-8.875s0.25-3.125,1.25-4.875
		s4.125-4.75,4.75-6.125s0.25-2.5,2.125-3.75s1.625-4.5,1.625-5.875s-0.5-4.625-1.25-7.375s-2.5-4.125-2.625-6.125s0.375-3,1.75-3
		S98.5,344.25,98.75,343s-0.75-3.625-3.125-3s-0.5,0.375-2.75,1.375S90.25,342,88.25,341.5s-1.625-1.375-2-3s-1.75-3.25-2.625-3.75
		s-1.75-1.875-2.625-0.5s-0.875,1.875-1.5,2.5s-1.25,2.75-2,1.625s-0.75-1.5-1.25-2.875s-0.125-1.875-2.375-2.25
		s-3.5-0.625-4.75-0.875s-2.5-1-3.75-2s-2.875-2.375-4.5-3s-3.125-1-4.125-2.25s-2-2.5-3.625-2.375s-3.375-2-4-0.875s-0.75,2-1,3.5
		s-0.5,3.125-1.125,4.25S45.75,331.5,43.5,332s-4.125,0.75-4.25-0.625s-1.125-3-0.125-4.125s1.75-1.375,0.5-3.125
		s-2.125-2.625-2.125-3.5S34,320,34.5,318.5s0.5-2.625,1.25-2.875s2.75-1.25,1.25-2.75s-2.25-1.25-3.25-1.125
		s-3.875,0.75-4.875,1.25s-3,0.625-3.813-0.75s0.063-1.625-1.688-2.75s-3.375-0.25-3.5-1.625s-1.875-3.484-2-3.867
		s0.75-3.958-1.75-2.733s-2.75,0.35-3.375,1.6s-1.75,1.625-2,2.375S9,310.25,9,310.25z"/>
	<path fill="none" stroke="#000000" stroke-miterlimit="10" d="M107.542,487.953"/>
	<path fill="#F5C8DF" stroke="#000000" stroke-miterlimit="10" d="M60.875,338.5c0,1.625,0.875,3,0,3.375s-0.75,1.25-1.25,2.25
		s-1,1.375-1.5,1.25s-2-0.375-2-2.25S56,340,56.125,338.5s1.25-1.875,1.75-2.875s2-2.375,2.25-1.5S60.875,338.5,60.875,338.5z"/>
	<path fill="#F5C8DF" stroke="#000000" stroke-miterlimit="10" d="M53.625,436.5c1.375,0.375,2.625,1.875,3,2.125s1.5,1.625,0,1.625
		s-3.375,0.375-3.75,0.75s-2.75-0.5-3.375-1.25s-1.75-0.875-0.625-1.875s0.875-2,2.125-2.5S53.625,436.5,53.625,436.5z"/>
</g>
<g id="Orografía">
</g>
<g id="Japón">
	<path fill="#F6F0A0" stroke="#000000" stroke-miterlimit="10" d="M414.375,817.875c-0.125,1.875-0.625,2.625,0,3.75
		s-0.25,1.5,0,2.75s-0.5,3-0.875,3.625s0.625,1.5,0,2.375s-1.125,1-1.5,2.125s-1.625,1.75-2.75,2.375s-2.125,1.625-2.375,2.875
		s-1.125,1.375-1.125,3s0,3.25,0,4.75s1,3.125,1,3.125s0.125,1.625,0,2.125s-0.125,3.375-1,2.25s-1.75-2-1.875-2.75s-1-1-1.75-1
		s-2.375,1.25-2.75,0s-1-2.625-1-4s-0.5-3,0-4s1-3.125,1-4.125s0.375-2.25,0.875-2.875s1.75-1.375,1.875-2.5s-0.625-1.125-1.25-2.5
		s-1-1.75-1-3.25s1.125-1.5,1.5-2.625s1.75-2.25,2.625-2.25s0.383,1.375,2.379,0.625s1.621-2,2.121-3s1-1.5,2.125-2.625
		S414.375,817.875,414.375,817.875z"/>
	<path fill="#F6F0A0" stroke="#000000" stroke-miterlimit="10" d="M394.875,853.259c0.75,0.741,1.625,1.991,2.125,1.616
		s1,0.012,2.375,0.068s2.125-1.307,2.5,0s1.375,1.807,0.875,2.682s-2,2.25-2.625,2.25s-0.875,1.25-0.625,2.375
		s0.25,2.125,0.25,3.375s-0.738,1.875-0.869,2.75s-0.326,2.625-0.729,3s-0.902,1.25-1.902,2.25s-1.75,1.75-3,2
		S390.5,876,390.125,875s-1.125-1.75-1.5-2.625s-0.625-1.75,0-2.875s0.75-1.875,0.75-3S389,863.625,390,863.375
		s1.625-0.125,1.625-1.5s0.25-2.875,0-4.375s-0.25-3.857-0.25-4.241s1-2.384,1.5-1.884S394.875,853.259,394.875,853.259z"/>
	<path fill="#F6F0A0" stroke="#000000" stroke-miterlimit="10" d="M438,898.375c0,0.5,0,2.375,0,2.375s-1,1.375,0,1.875
		s1.875,0.5,1.875,1.75s0.68,2.75-1.16,3s-2.34,1.375-2.84,1.875s-0.625,2.5-0.75,3.625s-0.625,2.25-1.375,0
		s-0.375-3.625-1.25-3.625s-2.5-0.125-2.625-0.875s-1.625-2.875,0-2.75s1.125-1.875,1.25-3s1-2,1.125-2.625s0.5-1.125,0.5-1.625
		s1.371-1.25,1.811-1.125s1.189,0.473,1.939-0.014S438,898.375,438,898.375z"/>
	<path fill="#F6F0A0" stroke="#000000" stroke-miterlimit="10" d="M364.375,1005c0,0-0.5-3.125,0-4s1.625-2.5,2-1.875
		s2,0.5,2.25,1.125s0.625,2,0.625,2.375s0,2.375,0,2.375H364.375z"/>
	<path fill="#F6F0A0" stroke="#000000" stroke-miterlimit="10" d="M388.875,953c0.75,0.25,0.875,1.375,0.875,2.125s1,2.375,0,2.75
		s-2.875-0.125-3.375,0s-1.875-0.125-2-0.875s1.375-2,1.375-2.625s1.531-0.625,1.531-0.625L388.875,953z"/>
	<path fill="#F6F0A0" stroke="#000000" stroke-miterlimit="10" d="M388.75,965.125c0.375,0.5-0.25,1.25,0,2.125
		s-0.375,1.5-0.75,2.375s-0.313,0.75-0.719,2.5s0.281,3.625,0,4.5s-1.031,2-1.031,3s0.25,2.375,0,3.125s-0.75,2.5,0,2.625
		s0.227-0.25,1.113-1.375s0.508-2,1.51-2.125s2.752-1.25,2.377,0s0.229,2.047,0.052,3.523s-0.038,2.102-1.107,2.227
		s-2.007,0.75-2.913,1.5s-0.824,1.875-1.428,2.75s0.104,3.125,0,3.75s-1.494,0.375-1.486,1.75s-0.867,2.375-0.992,3.25
		s-1.375,1-1.875,0s-0.875-1.75-1.25-3s0.375-2.25,0-4.25s0.533-2.25-0.108-3.375s-2.392-1.75-3.017-2s-1-2.25,0-2.25
		s0.875-2.125,1.75-3.125s1.75-2.25,2.25-3.375s1.5-2.5,1.5-3.5s0.25-2.5,0.25-3.75s0.969-2.375,1.047-2.875s1.453-1.125,1.578-2.25
		s1.563-2.5,1.781-3.125S388.75,965.125,388.75,965.125z"/>
	<path fill="#F6F0A0" stroke="#000000" stroke-miterlimit="10" d="M410,953c0.125-1,0.875-1.5,1.125-2.125s0.75-0.484,1.125-1.555
		s0.5-1.445,1.5-1.445s1.625,1,2.375,0s2.125-1.25,2.125,0s-0.625,1.154,0,2.14s0.5,2.61,0,2.985s-1.375,2.018-1.5,2.509
		s-1.125,0.616-1.625,1.616s-2.75,2.875-2.875,3.25s-1.875,1.125-2.25,1.75s-0.875,1.375-1,2.125s-0.25,0.75-1.25,1
		s-1.75,1.375-3.125,1.125s-0.375-1.5,0-1.5s1.25,0.008,1.25-1.246s0.25-2.629,0.625-2.879s0.625-1.375,1.25-1.375
		s1.375-1.09,1.625-1.357s0-0.078-0.125-1.298s-0.375-3.345-0.125-3.72S410,953,410,953z"/>
	<path fill="#F6F0A0" stroke="#000000" stroke-miterlimit="10" d="M512.375,1005c0,0,0.125-1.391,0-3.008s-1.375-1.896-1-3.007
		s1.236-1.985,0.493-2.235s-0.868-0.5-1.618-1.75s-1.75-1.5-2.25-1.625s-0.875-1.125-1.5-1.375s-2.375-1.5-3.375-1.5
		s-1.625-0.25-3-0.75S497,990,497,988.625s0-1.25-0.875-2.5s-1-1.125-1-2.375s0.125-1.125,0-2.625s0.5-2.25,0-2.875
		s0.842-2.125-0.017-3S494.875,974,494,972.5s-1.125-1.375-1.25-2.625s0.5-1.5-1.125-2s-1.875-1.303-3.25-1.464
		s-2.75-1.036-3.5-1.036s-2-0.867-2.375-1.746S482.375,963,481,962s-0.75-1.25-2.5-2s-2-0.5-2.5,0s0.75,1,0,1.75
		s0.256,1.875-0.122,2.5s-1.003,1.375-1.628,1.625s-1.125,0.625-1.25,1.5s-0.875,1.625-1.125,2.375s0.625,1.375,1.375,2.5
		s1.25,1.875,2,2.25s1.875,1,2,2.125s1.5,2.125,1.25,2.75s-0.125,1.957,0,3.104s-1,0.896-1.375,2.021s-1.375,2.75-1.875,3.375
		s-1.375,1.75-1.625,2.375s-1.375,0.75-0.25,2s1.25,1.5,1.25,2.25s0.625,1.375,2.125,1s2.25-0.625,3.5-0.5s1.875,0.125,2.5,0.125
		s1.75,0.25,2.375,0.25s0.875-0.25,1.5,0.375s1,0.625,1.75,1.625s1.5,1.471,2.125,1.61s2.137,0.015,1.631,1.265s-0.244,2.5,0,2.875
		s0,1.875,0,1.875h-53.506c0,0,0.875-2.516,0.75-3.008s-0.375-0.867-0.75-1.367s-0.875-0.529-1.125-1.64s-0.875-1.61-0.875-2.11
		s-1.125-0.75-1.125-2s-1.375-3.125-1.375-3.125s0.5-1.375,0-1.875s-0.625-1.5-0.875-2.125s0.75-1.25,0-1.625s-1.25-0.125-1.375-1.5
		s0.25-2.375,0-3.75s0-1.875,1-2.375s1.25-1,2.125-1s2.125-0.75,2.625,0s1.25,1.75,1.875,2s1.5,0.875,1.75,1.625
		s1.5,2.25,1.625,2.875s0.375,0.625,0.375,2.25s0.5,3.375,0.625,4.125s0.25,1.375,1,2.5s1,2.125,1.75,2.125s3.375,0.125,3.375-0.5
		s0.125-0.625,0.625-1.75s0.75-2.25,0.5-2.75s0.75-2,1.125-2.625s0.5-1.375,0.625-2.125s0.824-0.875,0.787-2s0.787-1.25,0-2.25
		s-0.787-1.25-1.412-2.375s-1-1-1.875-1.25s-1-0.5-2.125-0.875s-1.75-0.75-2-1.5s-0.375-1.125-0.875-1.75s-0.25-0.625-0.875-1.625
		s-1-1.75-1.875-1.875s-2.75-0.75-6.125-0.875s-4.055,1-4.715-0.125s-1.16-1.875-1.16-2.875s-0.25-2.375-1-2.75
		s-1.25-0.625-2.25-1.125s-1.75-0.5-1.875-1.375s-0.875-2.465,0-2.607s0.75-1.5,0.875-2.509S428,953.375,427.75,953
		s-0.25-1.125-0.75-1.5s-1.75-0.75-2.75-1.625s-1.375-0.75-2.375-1.5s-1.875-2-1.5-2.75s1.25-1.75,2-1.75s2.625-1.5,3.5,0
		s3,2,3.375,2s2.125-0.375,3-0.375s2.75,1.25,3.5,0.375s0.875-0.75,2-0.75s3.375,0.5,4,0s1.125-1.209,1.625-1.917
		s1.375-1.833,1-2.708s-2.875-1.375-2.875-1s-2.75,1.375-3.5,1.375s-1.625-1.875-0.5-2.125s2.125-0.5,3.625-1.375s2-1.75,2.875-2.5
		s1.25-0.75,1.625-1.875s1.125-1.875,1.875-2.125s1.25-1.625,2.625-1.5s0.5-1.125,2.125-1s3.625-0.375,3.25,1s-1,1.75-1.125,2.375
		s-1.551,1.375-0.713,1.875s1.463,1,1.713,1.625s1.125,1.25,2.5,1.5s2-0.25,2.375-1.375s0.75-1.625,1.75-2s2.375-1.125,3.625-1.625
		s2.125-1.5,3.25-1s2.375-0.5,2.625-1.25s1.5,0.732,1.5-1.134s-0.375-2.241-1.75-2.491s-1.125-0.75-2.375-0.75s-1.5,0.875-1.625,0
		s-0.625-3.125,1.125-2.75s3.25-0.084,4-0.042S473.5,921,474.125,920s0.25-2.5,1.25-2.375s0.875-0.375,2.25-0.875
		s1.375,0.375,1.875,1.125s0.625,1.75,1.5,2.25s1.625,1.25,2.25,1.25s2,0.25,2.75,0.25s1.75,0.625,3.125-0.25s1.625-2.25,2-2.375
		s1.125,0.625,1.75-1.375s-0.375-1.625-0.625-2s0.125-0.5,0.125-2.375s-0.875-3,0-3.25s1.625-1.375,1.875-1.75s2.25-1.805,2.25-2.59
		s0.75-1.41,0.75-2.035s0.125-1.375,0.125-2s0.625-1.125,0.625-2s-0.625-0.75,0.375-1.875s-0.125-1.25,1.75-2.75
		s3.375-4.125,4.875-2.125s2.875,3,4,2.875s1.875-0.875,2.5-1.875s1.875-2.625,1.875-3s0.875-1.625,2-1.625s2.25-2.125,5-1.25
		s2-1.5,3.25-1.25s2-0.5,3.125-0.75s2.875,0.25,3.75,0s0.75,0.125,2.375,1.125s2.25,2.25,4.125,2.375c0,5.75,0,115.5,0,115.5
		H512.375z"/>
	<path fill="#F6F0A0" stroke="#000000" stroke-miterlimit="10" d="M486.25,913.25c1,0,2.5-0.027,2.625,0.924s-0.25,2.201,0,2.826
		s-0.75,0.625-1.875,0.75s-1.75-0.25-2.625,0s-1.5-0.375-1.5-1.5s0.25-1.152,0.625-2.076S486.25,913.25,486.25,913.25z"/>
	<path fill="#F6F0A0" stroke="#000000" stroke-miterlimit="10" d="M537,845.125v35c0,0-1.875,0.25-1.875,0.75s-1.125-0.125-1.5,0
		s-2-0.75-2-1.5s-0.5-2.375,0-3.125s-0.25-0.625-0.75-1.25s-1-0.875-1-1.875s0.125-2.5,0-3.125s-0.25-1.25,0-2.25
		s0.5-2.25,1.125-2.875s0.625-1.5,1-2.5s1.48-1.625,1.365-2.5s0.49-1.625,0-2.5s-0.74-1.875-1.24-2.375s-0.75-2.125-1.625-2.75
		s-1.375-1.875-2.125-2.625s-0.75-3.375,0-3.75s0.875-0.375,1.75-0.75S535.75,844.75,537,845.125z"/>
</g>
<g id="Ríos">
	<path fill="none" stroke="#3965AE" stroke-width="3" stroke-miterlimit="10" d="M361.875,95.125c1.875-0.5,3.375-1.75,4.75-2.25
		s2.375-1.75,3.625-1.75s1.25-0.875,2.75-1.25s2.75-1.75,2.75-1.75s-0.375-1,0.875-2.25s2.627-0.375,2.376-2.625S377.25,79,378,78
		s2.125-1.125,2.25-2.625s-1.25-4,0-5.125s1.625-1.75,3-3.125s1.75-2.125,3.875-3.5s3.375-2.75,4.125-2.875s2.5,0.125,3.625,1.25
		s1.75,3.375,2.5,4.5s0.375,2.125,2.5,2.125s3.375,1.375,4,0s1.375-1.875,2.125-3s1.75-3.875,3.625-3.625s5.125,1.125,6-2.25
		s1.25-3,1.625-6s0.5-8.5,0.5-10.875s0.375-3.125,0-5.875s-0.416-3.875,0.167-6.125S417.75,27.75,418.75,26s1-2.83,2.125-4.665
		s1.375-1.71,2-3.585s0.625-3.125,1.5-4.5S424.75,10.125,426,8.5s2.5-2.25,4.75-1.625s3.25,1.75,4.875,1.75s0.25,2,2.375,1.5
		s1.375-2.25,3-2.125s3.625,0.25,3.375,2.125s-0.75,3.625-0.625,4.25s-1.582,2,0.646,2s0.479,0.5,3.104,0.5s3.125-0.375,3.25,2.25
		s1.625,3.75,1,5.25s-0.875,2.875-0.875,4.5s0.428,3.125,1.026,4.5s3.349,3.25,3.974,4s2,0.875,3.375,3.375s2.75,2.75,3.25,4.125
		s3.375,2.5,3.5,3.875s-0.625,3.25,0.625,3.125s2-0.75,2.5-1.875s-1-3.25,0-4.375S470.5,45,471.75,45.5s2,1.125,2,2.625
		s0.25,2.875,0,4.25s0.625,2.125,0.625,3.875s0.5,2.875,1,4.375s1.25,2,2.375,2.75s1.75,1.75,2.875,2.375s2.25,1.75,2.125,3
		s-0.105,2.875,0.01,5.25"/>
	<path fill="none" stroke="#000000" stroke-miterlimit="10" d="M361.875,95.125c1.875-0.5,3.375-1.75,4.75-2.25
		s2.375-1.75,3.625-1.75s1.25-0.875,2.75-1.25s2.75-1.75,2.75-1.75s-0.375-1,0.875-2.25s2.627-0.375,2.376-2.625S377.25,79,378,78
		s2.125-1.125,2.25-2.625s-1.25-4,0-5.125s1.625-1.75,3-3.125s1.75-2.125,3.875-3.5s3.375-2.75,4.125-2.875s2.5,0.125,3.625,1.25
		s1.75,3.375,2.5,4.5s0.375,2.125,2.5,2.125s3.375,1.375,4,0s1.375-1.875,2.125-3s1.75-3.875,3.625-3.625s5.125,1.125,6-2.25
		s1.25-3,1.625-6s0.5-8.5,0.5-10.875s0.375-3.125,0-5.875s-0.416-3.875,0.167-6.125S417.75,27.75,418.75,26s1-2.83,2.125-4.665
		s1.375-1.71,2-3.585s0.625-3.125,1.5-4.5S424.75,10.125,426,8.5s2.5-2.25,4.75-1.625s3.25,1.75,4.875,1.75s0.25,2,2.375,1.5
		s1.375-2.25,3-2.125s3.625,0.25,3.375,2.125s-0.75,3.625-0.625,4.25s-1.582,2,0.646,2s0.479,0.5,3.104,0.5s3.125-0.375,3.25,2.25
		s1.625,3.75,1,5.25s-0.875,2.875-0.875,4.5s0.428,3.125,1.026,4.5s3.349,3.25,3.974,4s2,0.875,3.375,3.375s2.75,2.75,3.25,4.125
		s3.375,2.5,3.5,3.875s-0.625,3.25,0.625,3.125s2-0.75,2.5-1.875s-1-3.25,0-4.375S470.5,45,471.75,45.5s2,1.125,2,2.625
		s0.25,2.875,0,4.25s0.625,2.125,0.625,3.875s0.5,2.875,1,4.375s1.25,2,2.375,2.75s1.75,1.75,2.875,2.375s2.25,1.75,2.125,3
		s-0.105,2.875,0.01,5.25"/>
	<path fill="none" stroke="#3965AE" stroke-miterlimit="10" d="M257.625,243.94c0,0-2.125,1.727-3.292,2.394s-0.677,0.5-2.922,2
		s-3.078,2.167-3.078,3s-0.333,2.333,1.333,2s2.833-1.5,4-1.5s3.333,0.262,2.833,1.547s-0.417,3.619-0.875,4.786
		s0.458,2.833,0,3.333s0.875-0.5,1.542-1.667s1.833-2.167,2.5-3s1.833-3.534,2.167-3.851s0.667-1.649,0-2.483s-2.333-2-2.833-4
		s-1.833-2.167-1.833-4.5s-1.75-3.167-1.542-5.667s-1.125-3.667-1.625-5.5s-1-3.5-1.667-6.333s-0.5-8.5,0.333-11.333
		s2.416-5.833,2.958-8s1.708-2.833,1.208-7.167s-0.976-5.333-1.571-7.167s-1.429-3.167-1.762-5s-1.5-3.5-0.667-5
		s2.333-2.5,3.167-2.333s1.834-0.37,3.167-0.018s4.5,0.571,5.5-0.122S267,178.333,268.5,177s2.334-2.167,2.334-4
		s0.5-4.166,0.833-5.833s-0.167-1.637,0-4.318"/>
	<path fill="#8AB6E2" stroke="#3965AE" stroke-miterlimit="10" d="M257.625,243.94c0,0-2.125,1.727-3.292,2.394s-0.677,0.5-2.922,2
		s-3.078,2.167-3.078,3s-0.333,2.333,1.333,2s2.833-1.5,4-1.5s3.333,0.262,2.833,1.547s-0.417,3.619-0.875,4.786
		s0.458,2.833,0,3.333s0.875-0.5,1.542-1.667s1.833-2.167,2.5-3s1.833-3.534,2.167-3.851s0.667-1.649,0-2.483s-2.333-2-2.833-4
		C258.723,245.391,258.045,244.604,257.625,243.94"/>
	<path fill="none" stroke="#3965AE" stroke-miterlimit="10" d="M214.5,271.875c-0.625,1.375-1.25,3.125-1.375,4.25
		s0.125,2.375,0,4.125s-0.75,2.875-0.875,4s0,1.625-0.625,3.125s-1.125,1.625,0,3.25s0.875,4.375,0.125,5.5s-1.25,3.625-2.5,5.25
		s-3,3-4.625,3s-3.875,0.75-5.5,0.875s-6.375-0.625-9,0s-3.375-0.5-5.5,0.875s-3.5,2-3.625,3.5s-1.125,4.25-2,4.375
		s-2.5,2.125-3.25,3.25s-1.5,3.125-2.25,1.75s-2.5-1.875-2.625-0.75s-0.961,2.625-1.855,3.25s-2.645,1.375-4.145,1.5
		s-2.25-0.125-2.625,1.875s-0.875,3.125,0,4.75s0.875,5,0.125,6.125s-1.5,2.5-3.375,3.125s-4.375,2.125-5,1s-1.125-2-2.125-3
		s-0.5-1.625-1.875-1.75s-2,1-2.375,1s-1.75,1.25-2.5,1.75s-2.625,0.75-3.875,0.875s-2.25,0.813-3.375,1.532
		s-4.75,1.468-4.875,2.843s0.542,2.5,1.958,3.625s2.792,2.25,2.292,3.75s0.875,3.375,0,6s-1.625,2.875-0.5,4.375
		s2.75,3.875,3.75,5.375s1.875,4.25,1.375,5.375s-3.625,3-3.75,4.5s0.625,2.5,0.75,4.375S139,385.375,138,387
		s-0.833,2.143-3.042,2.571s-4.458,1.179-5.583,1.179s-2.875,0.625-4,0.625S121.5,390.5,120,392s-2.625,2.472-4.375,4.423
		s-4.375,4.077-4.625,5.452s-0.75,3.035-2.375,3.455s-2.125,0.92-2.25,2.17s-1.125,3,0,4s2.75,3.875,3.5,4.375s0.5,2.875,0.25,4.25
		s-1.042,2.75-2.583,2.75s-2.792,0.625-3.917,0S101.875,421,100.75,421"/>
	<path fill="none" stroke="#3965AE" stroke-miterlimit="10" d="M229.25,380.5c-1.5,0.625-2.25,2.25-3.625,2.625
		s-1.875,0.5-2.125,1.75s-0.5,1.25-0.5,2.125s-0.125,1.018-0.875,2.571s-0.525,2.804-0.763,4.054s0.263,2.25-0.362,3.375
		s-0.625,2-1.25,3.5s-1,2.375-1.875,3.5s-1.875,2.625-2,3.125s1.25,1.125,1.25,2.125s-0.391,1.75-1.258,2.75
		s-1.367,1.25-1.367,2.625s1,2.75,0,3.75s0.625,1.5-1.375,2.625s-4.594,2-4.797,3.125s-1.703,2.75-1.828,3.5s-0.625,3.25-0.875,5
		s-0.125,4.875-0.75,5.75s-0.875,1.75-1,3s0.5,2.125-0.875,3.125s-2.625,2-3.25,2.375s-1.75,0.75-0.875,1.875
		s1.125,2.125,1.25,3.125s-0.375,2.25-0.625,3.375s-1.51,1.875-2.505,1.5s-1.87,0-1.12,1.125s2,1.75,2.875,2.125s3,0.5,3.25,1.5
		s1,1.625,1.25,3.625s1.375,3.25,1.125,4.375s-0.25,1.75,0.75,2.625s2.301,1.875,3.088,3.25s1.912,1,1.787,2.25
		s-0.5,2.625,0.375,3.875s1.343,1.5,2.046,3.125s1.079,3.875,0.704,4.875s-0.125,2.875-1.5,2.875s-3.449,0.75-3.412,1.5
		s0.037,3-1.338,2.625s-4.125-0.791-5.125,0.042s-3.125,0.833-3.5,1.583s-1.26,2.25-1.255,3.375s-0.059,2.644-1.402,2.134
		s-2.468-0.741-3.093,0s-0.625,1.384-1.125,2.5s-0.75,0.991-1.875,1.366"/>
	<path fill="none" stroke="#3965AE" stroke-miterlimit="10" d="M263.625,418.375c-1,0.875-1.5,1.5-1.875,2.375
		s-0.625,0.931,0.375,2.403s1.875,1.097,1.5,2.597s0.5,2.25,1.125,3s-0.125,1.375,1.125,1.75s2,0.75,2,1.75s1.996,0.75,1.998,1.375
		s-1.127,2.75,0,3s2.545,0.25,2.961,2s0.541,2.25,1.916,3.375s1.625,3.125,1.75,4.5s-0.125,2.875-1.125,3.375s-0.5,2.125-0.5,3.875
		s-0.25,4.125,0.5,4.375s2.375,2.25,1.875,3.25s-1.625,1.375-1.75,2.75s2.375,2.625,2.5,3.625s1.5,2.5,1.375,3.75s1,3.5,2.125,4.125
		s-0.375,2.375,0,3.25s0.5,1.08-0.5,1.665s-1.875,1.085-3.625,1.085s-2.5-1-4,0s-3.004-0.25-3.502,0.625s0.377,1.875-1.373,2.875
		s-2.5,1.625-3.125,2.75s-1.75,1.375-1.75,2.375s0.75,3.125,1.5,3.875s0.625,1.5,1.625,2.5s2.125,1.625,1.75,2.875
		s-0.125,1.75-0.5,3s-1,2.019-1.5,3.634s-1.125,2.858-2.125,3.362s-1.033,0.996-2.954,0s-3.296-1.228-4.421-0.862
		s-1.5,0.866-1.625,2.366s1.375,4,1.375,4.375s-1.125,1.25-2,2.5s-1.125,3-2.375,3.25s-1.75-0.125-3.5-1s-2,1.527-3.125,1.076
		s-0.875,1.174-1.25,2.049s-1.5,1.625-1.625,2.625s-0.625,2.867-1,4.121s0.125,3.123-0.875,3.626s-1,2.628-1.125,3.628s2,3,3.125,2
		s2.5,0.295,3.625,0.272s2,1.353,2.875,1.603s2.375,0.5,2.5,1.875s1.5,2.519,2.125,3.884s2.75,1.259,2.75,2.5
		s1.25,2.491,1.625,3.491s1.25,2.25,1.875,3.5s1.25,2.625,1.875,3s1,1,2.375,1.5s1.875,0.5,1.875,1.75s1.875,1.875,2,3.25
		s-0.379,2.375,1.373,2.75s2.248,1,2.5,2.25s1.502,1.875,1.752,3.125s-0.375,1.125-0.5,1.875s-0.625,1.75,1.375,1.75
		s2.75,0.125,2.875,1s0,0.75,1.375,2.125s3.25,2,3.25,3.5s1.125,2,1.25,3.125s0.875,3,1.75,2.125s2.125-1.75,3.5-1.75
		s2.25,0.375,3,1s1.875,1.5,2,2.25s0.375,0.875,1.375,2s1.25,2,2.25,1.5s1.375-0.125,2-1.75s1-1.875,1.375-2.875
		s0.375-2.125,1.5-1.625s2.25,0.875,3.375,0.625s1.125-0.625,1.625,1s1.375,1,1.5,2.125s0.125,1.288,1.25,2.644
		S312.5,597,313.375,597s1.875,2.125,2.5,0s1.625-1.875,2.125-2.75s-0.25-0.75,1-1.875"/>
	<path fill="none" stroke="#3965AE" stroke-miterlimit="10" d="M189.5,525.5c1.75,0.875,2.5,0.25,3.25,0.875s1.875,0.25,2.75,1.75
		s1.875,2,2.75,3.125s3.125,2.119,3.375,2.372s2.75,1.253,3,1.878s5.871,1.231,7.5,1.25s3.5-0.75,4.125,0s2.875,0.626,3.875,0
		s2.125,0.261,3-0.557s3.25-1.449,3.5-2.571s1.5-0.872,2-0.622s2.125,0.625,2.375,1.125s0.75,1.012,1.875,2.068
		s1.375,0.716,2.875,1.074s2.5,0.733,4.125-0.017"/>
	<path fill="none" stroke="#3965AE" stroke-miterlimit="10" d="M363.751,607.375c-0.001,1.25,0.126,3.25,0,4s-0.626,1-1.626,1.625
		s-0.75,0.25-0.75,2s1.07,2.5-0.027,2.75s-1.473,0-1.473,1.5s-1.25,2.75,0,3.875s1.752,1.25,1.688,2.875s2.063,2.625,0,2.625
		s-1.55,0.5-2.244,1.25s-0.622,0.625-2.658,0.625s-2.704,0.125-3.245,1.125s-2.195,1.664-3.691,1.804s-1.723,0.071-3.474,0.196
		s-2.97-1-4.173-0.875s-2.828,0.625-3.703,1.625s-0.5,2.875-1.75,2.125s-1.625-2.375-2-2.875S332.75,633.5,332,634.25
		s-0.5,0.875-1.625,1.75s-1.25,1.625-2.75,1.625s-1.25,0.875-2.5,0.75s-1.01-0.5-2.13-1.625s-2.245-2.875-3.37-3.125
		s-1.125,0.5-2.25,0s-2.125-0.625-2.625,1s-0.875,2-0.875,2.75s-0.75,2.625-0.75,4.125s1.625,3.25,0,3.625S309,646.75,311,647.375
		s1.625,1.125,3.25,1.625s3.75,0.125,3.5,1.625s-1.125,0.125-1.375,2.5s-0.625,1.85-0.5,3.487s0.5,2.013,2,2.763
		s1.875,1.125,1.875,2.875s-0.125,2.375,0.875,3.875s0.75,2.25,1.5,3.375s0.74,2.5,0.87,3.25s1.255,1.75,1.505,2.5
		s0.375,0.875,0.375,2.875s0.125,3.5-1,5s0,2.057,0,3.403s0.5,2.597,0.5,3.847s1.75,3.625,1.25,5.125s-1.25,2-1.375,3.5
		s-0.25,1.375,0.625,2.125s2.75,2.25,3.625,2.375s2.125,0.625,2.25,1.375s1.125,1.25-0.75,1.5s-2.25-0.75-3.625,0
		s-2.25,1-2.375,1.875s0.125,2,0.875,2.625s1.75,2,1.25,2.75s-0.5,1.625-1.5,2.625s-1.135-0.125-1.63,2s0.13,1.875,0.755,3.375
		s-0.01,1.875-0.755,3s-0.37,2.125-0.745,3.75s-0.625,1.25-0.625,3.375s0.115,3,1.37,4s1.88,1.625,1.63,3.25s-1.375,2.5-0.625,3.75
		s2.375,3.25,3.75,4.125s1.625,1.5,3.625,1s3.625-1.395,4.5,0.178s2.127,2.072,3.376,2.197s2.499,0.5,3.999,0s2.75-1.625,3.625-0.75
		s1.875,0.506,3.125,1.003s2.332,0.372,3.416,1.747s2.031,0.875,3.245,0s3.089,0.125,3.589-1.5s2-2.5,2.625-1.875
		s2.125,0.875,3.125,2.25s2.875,1.625,3.625,2.5s2.625,1.375,2.625,2s1.32,1.625,1.848,2.875s2.027,1.75,1.402,2.75
		s-1.625,2.125-4,3.375s-3.25,2.125-4.375,2.5s-1.5,0.875-1.5,2.125s0.375,0.932,0.375,3.403s0,3.657,0,5.502"/>
	<path fill="none" stroke="#3965AE" stroke-width="3" stroke-miterlimit="10" d="M9,305.25c1.25-2-0.25-3.416,2.75-4.583
		s6.5-3.167,6.5-3.167s3.5-1,3.75-3.25s1.75-3.25,1.25-4.75s0-3.5,1.25-4.5s3.5-3.25,4.5-3.5s-0.25-1.5,2.25-2.75
		s2.125-2.125,2.5-2.125s1-1.125,1.625-1.125s0.875-1.75,2.625-2.25s1.875-1.75,2.625-1.875s1.75-1.125,2.375-1.625
		s1.375-0.75,2.375-1.5s1.5-0.875,2.375-0.875s1.5-0.875,2.25-1.125s2.5-0.5,2.5-1.375s1.125-1,1.125-2.125s2.125-3,2.125-3.875
		s0.625-1.375,1.75-1.375s2.625,0,2.625-1s1.5-2.028,2-2.514s1.125-1.236,2-1.361s2.625-1.25,3-1.125s3.5-0.02,4.25-0.01
		S73,250,73,248.625s0.875-2.125,0-2.625s-0.473-1.625,0.389-2.125s1.361-1.75,3.111-1.875s1.5-1.25,3.25-1.25
		s2.375-1.125,3.875-1.25s2.875-1.25,4.375-2.375s2.375-1.125,3.625-1.5s3-0.625,3.75,0s2.125,0.5,3.25,0.625s1.625-0.5,3-0.5
		s2.25-0.5,2.5-1.75s1.375-2.125,1.375-3s1.708-0.75,2.167-1.5s0.333-0.75,2.208-1s4.5-0.5,4.75-1s1.125-1.25,1.625-1.875
		s1.375-1.25,2.125-1.25s0.75-0.375,1.75-0.875s2.375,0,1.875-1.5s-1.875-0.25-1.75-2s1.337-2.25,1.856-2.25s2.519-0.625,2.519-1.5
		s0.625-1.625,1.25-1.875s0.875-0.25,2.25-1.125s2.125-0.5,2.875,0.625s0.875,0.625,2.25,0.875s2.75-0.375,3.625-0.875
		s2-1.875,3.25-1.875s4,1.25,4.25,0s1.75-2.375,2.875-2.75s0.25-1.125,1.75-1.375s1.75-0.75,2-1.875s1.176-1.5,1.525-2.625
		s0.6-2.25,0.975-3.25s0.5-1.75,1.5-1.75s1.375-0.75,2-1.75s1.875-1.875,1.875-2.5s1.625-0.75,1.625-1.875s0.625-2.25,1.5-2.875
		s1-1.5,2.125-2s1.875-1.75,2.125-2.125s0-1.5,1.25-1.5s2.5,0,3-1.25s1.875-1.375,1.875-2.5s1.25-2.5,1.25-4s0-2.5,0.875-3.5
		s1.5-2.125,2.5-2.125s2.5-1,3.25-1.125s2.25-1.5,2.75-2.25s2-1.5,1.875-2.25s-1-2.625-0.875-3.875s0.515-1.5,0.882-2.625
		s0.993-2.875,1.993-3.375s1.375-2.5,1.75-3.75s0.25-2.875,0.625-4.125s0.875-2.625,0.875-3.625s1-3.375,2.5-3.5
		s3.615,0.125,4.37-0.625s1.255-1.5,1.755-2.75s0.25-1.875-0.75-3.125s-0.5-3.125,0.375-2.75s2.125,0.875,3.5,1.375
		s3.625-0.75,4.375-0.625s3.125-0.098,3.875-0.799s1.625-1.326,1.75-2.326s0.25-2.5,1.875-1.75s4.125,0.625,5.625,2.125
		s1.75,1.5,2.5,2.125s1.625,2.625,2.25,3.25s0.5,2.125,0.625,3s-1.375,1.125,0,2.25s3.375,2.5,3.875,3.375s0.75,2,1.25,2.875
		s1.375,2,0,2.75s-2.75,1-1.875,2.375s2.25,2.375,3.5,2.375s2.875,1.375,3.75,1.375s3.127,0.25,4.188,1.125s3.437,2,4.312,1.875
		s2.573-0.375,3.912-0.25s1.713-0.75,3.463-0.75s2.625-1.375,4.5-1.125s5.293,0.75,4.709,1.5s-0.408,3.375,0.066,4.5
		s1.475,1.5,2.225,1.5s5.125,1.625,5.875,0.875s3.25-0.875,5-0.75s3.25,1.25,4.625,1s1.875-1.125,3.125-1.125s2.875-1.25,3.875-1.25
		s0.625-1.75,2.25-1.5s3.625,0,4.75,1s2,1.25,2.625,2.125S297,166,298,166s2.875-0.5,3.75-1.875s2.25-1.5,3.25-3.375
		s2.5-2.875,3-4.25s0.5-3,1.625-3.75s1.875-1.125,2.5-1.625s1.25-1.5,2-2.625s-0.375-2.75,0-4.25s1.5-1.5-0.75-3.375
		s-2.625-3.375-5.25-3.375s-1.469-1.25-3.797-1.75s-3.078-2.375-3.578-3.75s-2.125-1.5-1.75-3.75"/>
	<path fill="none" stroke="#000000" stroke-miterlimit="10" d="M299,128.25c0.375-2.25,0.125-3.25,0-4.75s-0.375-2.5-0.75-4.125
		s-1.25-1.75-1.625-3.5s-0.875-1.75-0.375-3.25s0.5-3.875,1.625-4.75s2-2.25,4.5-2.625s5.25-2.125,6.875-2.375s6.875,0.375,8.125,0
		s2.865-0.997,5.62-0.061s2.13-0.189,3.88,0.936s3.625,1.625,4.75,1.625s3.5-0.5,4.25-1.5s0.75-1,2.375-1s2.531-0.625,4.078,0.375
		s4.297-0.125,5.672,0s3.5-2.104,4.375-0.927s1.5,1.927,2.375,2.427s2.625,2.625,3.125,0.875S359,101,359.5,98.875
		s0.5-3.25,2.375-3.75"/>
	<path fill="none" stroke="#000000" stroke-miterlimit="10" d="M9,305.25c1.25-2-0.25-3.416,2.75-4.583s6.5-3.167,6.5-3.167
		s3.5-1,3.75-3.25s1.75-3.25,1.25-4.75s0-3.5,1.25-4.5s3.5-3.25,4.5-3.5s-0.25-1.5,2.25-2.75s2.125-2.125,2.5-2.125
		s1-1.125,1.625-1.125s0.875-1.75,2.625-2.25s1.875-1.75,2.625-1.875s1.75-1.125,2.375-1.625s1.375-0.75,2.375-1.5
		s1.5-0.875,2.375-0.875s1.5-0.875,2.25-1.125s2.5-0.5,2.5-1.375s1.125-1,1.125-2.125s2.125-3,2.125-3.875s0.625-1.375,1.75-1.375
		s2.625,0,2.625-1s1.5-2.028,2-2.514s1.125-1.236,2-1.361s2.625-1.25,3-1.125s3.5-0.02,4.25-0.01S73,250,73,248.625
		s0.875-2.125,0-2.625s-0.473-1.625,0.389-2.125s1.361-1.75,3.111-1.875s1.5-1.25,3.25-1.25s2.375-1.125,3.875-1.25
		s2.875-1.25,4.375-2.375s2.375-1.125,3.625-1.5s3-0.625,3.75,0s2.125,0.5,3.25,0.625s1.625-0.5,3-0.5s2.25-0.5,2.5-1.75
		s1.375-2.125,1.375-3s1.708-0.75,2.167-1.5s0.333-0.75,2.208-1s4.5-0.5,4.75-1s1.125-1.25,1.625-1.875s1.375-1.25,2.125-1.25
		s0.75-0.375,1.75-0.875s2.375,0,1.875-1.5s-1.875-0.25-1.75-2s1.337-2.25,1.856-2.25s2.519-0.625,2.519-1.5s0.625-1.625,1.25-1.875
		s0.875-0.25,2.25-1.125s2.125-0.5,2.875,0.625s0.875,0.625,2.25,0.875s2.75-0.375,3.625-0.875s2-1.875,3.25-1.875s4,1.25,4.25,0
		s1.75-2.375,2.875-2.75s0.25-1.125,1.75-1.375s1.75-0.75,2-1.875s1.176-1.5,1.525-2.625s0.6-2.25,0.975-3.25s0.5-1.75,1.5-1.75
		s1.375-0.75,2-1.75s1.875-1.875,1.875-2.5s1.625-0.75,1.625-1.875s0.625-2.25,1.5-2.875s1-1.5,2.125-2s1.875-1.75,2.125-2.125
		s0-1.5,1.25-1.5s2.5,0,3-1.25s1.875-1.375,1.875-2.5s1.25-2.5,1.25-4s0-2.5,0.875-3.5s1.5-2.125,2.5-2.125s2.5-1,3.25-1.125
		s2.25-1.5,2.75-2.25s2-1.5,1.875-2.25s-1-2.625-0.875-3.875s0.515-1.5,0.882-2.625s0.993-2.875,1.993-3.375s1.375-2.5,1.75-3.75
		s0.25-2.875,0.625-4.125s0.875-2.625,0.875-3.625s1-3.375,2.5-3.5s3.615,0.125,4.37-0.625s1.255-1.5,1.755-2.75
		s0.25-1.875-0.75-3.125s-0.5-3.125,0.375-2.75s2.125,0.875,3.5,1.375s3.625-0.75,4.375-0.625s3.125-0.098,3.875-0.799
		s1.625-1.326,1.75-2.326s0.25-2.5,1.875-1.75s4.125,0.625,5.625,2.125s1.75,1.5,2.5,2.125s1.625,2.625,2.25,3.25s0.5,2.125,0.625,3
		s-1.375,1.125,0,2.25s3.375,2.5,3.875,3.375s0.75,2,1.25,2.875s1.375,2,0,2.75s-2.75,1-1.875,2.375s2.25,2.375,3.5,2.375
		s2.875,1.375,3.75,1.375s3.127,0.25,4.188,1.125s3.437,2,4.312,1.875s2.573-0.375,3.912-0.25s1.713-0.75,3.463-0.75
		s2.625-1.375,4.5-1.125s5.293,0.75,4.709,1.5s-0.408,3.375,0.066,4.5s1.475,1.5,2.225,1.5s5.125,1.625,5.875,0.875
		s3.25-0.875,5-0.75s3.25,1.25,4.625,1s1.875-1.125,3.125-1.125s2.875-1.25,3.875-1.25s0.625-1.75,2.25-1.5s3.625,0,4.75,1
		s2,1.25,2.625,2.125S297,166,298,166s2.875-0.5,3.75-1.875s2.25-1.5,3.25-3.375s2.5-2.875,3-4.25s0.5-3,1.625-3.75
		s1.875-1.125,2.5-1.625s1.25-1.5,2-2.625s-0.375-2.75,0-4.25s1.5-1.5-0.75-3.375s-2.625-3.375-5.25-3.375s-1.469-1.25-3.797-1.75
		s-3.078-2.375-3.578-3.75s-2.125-1.5-1.75-3.75"/>
</g>
<g id="Fases">
	<path fill="none" stroke="#E41513" stroke-width="3" stroke-miterlimit="10" d="M407.625,689.631
		c-6.625,5.244-16,9.369-23.875,9.244s-10,0.125-16-1.25s-10.125-3.875-16.375-4.25s-9.623-1.242-14.624,0.879
		s-9.376,5.717-9.876,8.419s-1.125,8.702,0,13.327s2.5,10.25,3.25,14.375s2.25,16.125,2.25,20.375s0.943,6.25,0.534,9.25
		s-2.409,12-3.159,14.125s-2,3.625-2.875,8.125s-2.5,7.625,0,10.25"/>
	<path fill="none" stroke="#E41513" stroke-width="3" stroke-miterlimit="10" d="M313.375,793.5
		c-0.625-4.625-2.984-26.75-3.117-32.875s-2.008-23.875-1.508-36s2-28.693,8.75-34.347s9.125-8.087,20.375-9.058
		S358.252,682,363.751,683s14.499,4.375,18.249,4.25s16.5,0,22.5-2"/>
	<path fill="none" stroke="#E41513" stroke-width="3" stroke-miterlimit="10" d="M410,614.625
		c-9.25-6.125-41.75-27.625-55.75-28.375s-22.75-2-38.25,7s-27,19.375-30.625,22.75s-8.875,8-11.125,9.625s-5.5,10.125-8.125,15.25
		s-5.375,13.25-10,18.625s-10.625,12.125-13.25,15.5s-7.125,10.307-11.25,16.528S221.5,705.875,216,711.375
		s-12.885,9.875-19.005,10.25s-16.995-2.5-20.87-5.5"/>
	<path fill="none" stroke="#E41513" stroke-width="3" stroke-miterlimit="10" d="M203.875,601.375c4.375,0.25,9.5,0.375,12.375-1
		s4.625-3.736,6.625-2.431s4.875,1.933,6.875-0.381s7.114-1.563,10.12-2.063s18.005-5.75,20.255-13.25
		c7.125-5.375,3.875-1.375,26.063-10.25s31.063-12.75,35.688-14.5s12.658-3.125,21.079-4.75s31.546-7.75,41.296-10"/>
	<path fill="none" stroke="#E41513" stroke-width="3" stroke-miterlimit="10" d="M369.25,516.375
		c-8.347,0.675-14.125-1.5-23.375-1.375s-17.375,2.25-23.75,4.375s-16.875,7.25-24.875,10.5s-18.875,7.25-36.5,7
		s-25.125,1.869-30.25,1.747s-32.125,0.253-43.5,1.503"/>
	<line fill="none" stroke="#E41513" stroke-width="3" stroke-miterlimit="10" x1="108.875" y1="491.125" x2="77.5" y2="491.125"/>
	<line fill="none" stroke="#E41513" stroke-width="3" stroke-miterlimit="10" x1="123.5" y1="493" x2="352.005" y2="493.701"/>
	<text transform="matrix(1 0 0 1 410 701.1533)" font-family="'MyriadPro-Bold'" font-size="14">SEP 15</text>
	<text transform="matrix(1 0 0 1 399.5 677.5)" font-family="'MyriadPro-Bold'" font-size="14">AUG 20</text>
	<text transform="matrix(1 0 0 1 412 621)" font-family="'MyriadPro-Bold'" font-size="14">JUL 20</text>
	<text transform="matrix(1 0 0 1 392.6523 547.125)" font-family="'MyriadPro-Bold'" font-size="14">JUL 6</text>
	<text transform="matrix(1 0 0 1 370.2441 520.5)" font-family="'MyriadPro-Bold'" font-size="14">JUN 29</text>
	<text transform="matrix(1 0 0 1 360.251 496.5)" font-family="'MyriadPro-Bold'" font-size="14">JUN 25</text>
</g>
<g id="leyenda">
	<text transform="matrix(1 0 0 1 169.0195 79.833)" font-family="'MyriadPro-Bold'" font-size="14">CHINA</text>
	<text transform="matrix(1 0 0 1 118.1079 407.3301)" font-family="'MyriadPro-Regular'" font-size="12">Pyongyang</text>
	<text transform="matrix(1 0 0 1 118.5254 259.1108)" font-family="'MyriadPro-Bold'" font-size="14">NORTH KOREA</text>
	<text transform="matrix(1 0 0 1 234.0874 396.4233)" font-family="'MyriadPro-Regular'" font-size="12">Wonsan</text>
	<text transform="matrix(1 0 0 1 234.4717 272.4478)" font-family="'MyriadPro-Regular'" font-size="12">Chosin Reservoir</text>
	<text transform="matrix(1 0 0 1 311 168.875)" font-family="'MyriadPro-Regular'" font-size="12">Hyesan</text>
	<text transform="matrix(1 0 0 1 363.751 128.25)" font-family="'MyriadPro-Regular'" font-size="12">Ch&apos;ŏngjin</text>
	<text transform="matrix(1 0 0 1 3 279.583)" font-family="'MyriadPro-Regular'" font-size="12">Dandong</text>
	<text transform="matrix(1 0 0 1 30.875 298.542)" font-family="'MyriadPro-Regular'" font-size="12">Sinuiju</text>
	<text transform="matrix(1 0 0 1 54.4585 227)" font-family="'MyriadPro-Regular'" font-size="12">Yalu River</text>
	<text transform="matrix(1 0 0 1 134.9585 229.125)" font-family="'MyriadPro-Regular'" font-size="12">Chosan</text>
	<text transform="matrix(1 0 0 1 127.25 193.3755)" font-family="'MyriadPro-Regular'" font-size="12">Ji&apos;an</text>
	<text transform="matrix(1 0 0 1 117.1079 38.5)" font-family="'MyriadPro-Regular'" font-size="12">thousand km</text>
	<text transform="matrix(1 0 0 1 221.3623 679.2207)" font-family="'MyriadPro-Bold'" font-size="14">SOUTH KOREA</text>
	<text transform="matrix(1 0 0 1 107.5415 480.54)" font-family="'MyriadPro-Regular'" font-size="12">Haeju</text>
	<text transform="matrix(1 0 0 1 349.416 18.585)" font-family="'MyriadPro-Regular'" font-size="12">Yanji</text>
	<text transform="matrix(1 0 0 1 452.25 21.335)" font-family="'MyriadPro-Regular'" font-size="12">Tumen River</text>
	<text transform="matrix(1 0 0 1 203 527.9961)" font-family="'MyriadPro-Regular'" font-size="12">Seúl</text>
	<text transform="matrix(1 0 0 1 193.3335 553.9956)" font-family="'MyriadPro-Regular'" font-size="12">Incheon</text>
	<text transform="matrix(1 0 0 1 155.125 500.375)" font-family="'MyriadPro-Regular'" font-size="12">Yonan</text>
	<text transform="matrix(1 0 0 1 221 571.9961)" font-family="'MyriadPro-Regular'" font-size="12">Suwon</text>
	<text transform="matrix(1 0 0 1 275.834 509.4961)" font-family="'MyriadPro-Regular'" font-size="12">Chuncheon</text>
	<text transform="matrix(1 0 0 1 312 528.9961)" font-family="'MyriadPro-Regular'" font-size="12">Gangneung</text>
	<text transform="matrix(1 0 0 1 322.9951 627.3213)" font-family="'MyriadPro-Regular'" font-size="12">Andong</text>
	<text transform="matrix(1 0 0 1 251.4116 656.6123)" font-family="'MyriadPro-Regular'" font-size="12">Daejeon</text>
	<text transform="matrix(1 0 0 1 196.9951 694.6533)" font-family="'MyriadPro-Regular'" font-size="12">Gunsan</text>
	<text transform="matrix(1 0 0 1 208.3281 783.9863)" font-family="'MyriadPro-Regular'" font-size="12">Gwangju</text>
	<text transform="matrix(1 0 0 1 384.9951 790.6543)" font-family="'MyriadPro-Regular'" font-size="12">Pusan</text>
	<text transform="matrix(1 0 0 1 342.0781 736.3213)" font-family="'MyriadPro-Regular'" font-size="12">Miryang</text>
	<text transform="matrix(1 0 0 1 359.1611 680.9365)" font-family="'MyriadPro-Regular'" font-size="12">Pohang</text>
	<text transform="matrix(1 0 0 1 299.3281 772.6533)" font-family="'MyriadPro-Regular'" font-size="12">Masan</text>
	<text transform="matrix(1 0 0 1 453.6621 949.3203)" font-family="'MyriadPro-Regular'" font-size="12">Fukuoka</text>
	<circle stroke="#000000" cx="305.875" cy="166.375" r="2.5"/>
	<text transform="matrix(1 0 0 1 203.25 317.25)" font-family="'MyriadPro-Regular'" font-size="12">Hungnam</text>
	<text transform="matrix(1 0 0 1 490.5 938.75)" font-family="'MyriadPro-Bold'" font-size="14">JAPAN</text>
	<text transform="matrix(1 0 0 1 9 38)" font-family="'MyriadPro-Regular'" font-size="14">0</text>
	<text transform="matrix(1 0 0 1 47 37.8003)" font-family="'MyriadPro-Regular'" font-size="14">50</text>
	<text transform="matrix(1 0 0 1 88.25 38.5)" font-family="'MyriadPro-Regular'" font-size="14">100</text>
	<line fill="none" stroke="#000000" stroke-width="2" x1="11.75" y1="9.75" x2="11.75" y2="21.335"/>
	<line fill="none" stroke="#000000" stroke-width="2" x1="55.25" y1="9.75" x2="55.25" y2="21.335"/>
	<line fill="none" stroke="#000000" stroke-width="2" x1="98.75" y1="9.75" x2="98.75" y2="21.335"/>
	<line fill="none" stroke="#000000" stroke-width="2" x1="11.75" y1="15.375" x2="98.75" y2="15.375"/>
</g>
<g id="Ciudades">
	<circle stroke="#000000" cx="19.875" cy="284.5" r="2.5"/>
	<circle stroke="#000000" cx="25.063" cy="294.563" r="2.688"/>
	<circle stroke="#000000" cx="130.75" cy="224.5" r="2.5"/>
	<circle stroke="#000000" cx="155.025" cy="191.375" r="2.5"/>
	<circle stroke="#000000" cx="305.875" cy="166" r="2.5"/>
	<circle stroke="#000000" cx="415.75" cy="125.75" r="2.5"/>
	<circle stroke="#000000" cx="382.495" cy="15.375" r="2.5"/>
	<circle fill="none" stroke="#000000" cx="118.054" cy="389.571" r="5.571"/>
	<circle stroke="#000000" cx="250.616" cy="381.376" r="2.5"/>
	<circle stroke="#000000" cx="258.125" cy="316.5" r="2.5"/>
	<circle stroke="#000000" cx="151.75" cy="499" r="2.5"/>
	<circle stroke="#000000" cx="118.75" cy="485.875" r="2.5"/>
	<circle stroke="#000000" cx="269.873" cy="506.134" r="2.5"/>
	<circle stroke="#000000" cx="362.751" cy="515.375" r="2.5"/>
	<circle stroke="#000000" cx="213.75" cy="566.875" r="2.5"/>
	<circle stroke="#000000" cx="187.623" cy="549.384" r="2.5"/>
	<circle stroke="#000000" cx="118.125" cy="389.5" r="2.5"/>
	<circle fill="none" stroke="#000000" cx="208.213" cy="536.193" r="5.571"/>
	<circle stroke="#000000" cx="208.284" cy="536.122" r="2.5"/>
	<circle stroke="#000000" cx="348.751" cy="631.125" r="2.5"/>
	<circle stroke="#000000" cx="246.663" cy="653.125" r="2.5"/>
	<circle stroke="#000000" cx="190.001" cy="689.028" r="2.5"/>
	<circle stroke="#000000" cx="398.75" cy="686.528" r="2.5"/>
	<circle stroke="#000000" cx="354.81" cy="740.916" r="2.5"/>
	<circle stroke="#000000" cx="336.751" cy="774.125" r="2.5"/>
	<circle stroke="#000000" cx="376.598" cy="780.655" r="2.5"/>
	<circle stroke="#000000" cx="204.047" cy="778.168" r="2.5"/>
	<circle stroke="#000000" cx="478.5" cy="934.25" r="2.5"/>
</g>
</svg>
